<?xml version="1.0" encoding="UTF-8"?>
<svg xmlns="http://www.w3.org/2000/svg" width="217.859" height="63.607" viewBox="0 0 217.859 63.607">
  <g id="logo-new" transform="translate(0 -0.32)">
    <path id="Combined_Shape" data-name="Combined Shape" d="M80.126,48.7c0-5.575,0-14.9,8.978-14.9s8.978,9.33,8.978,14.9,0,14.9-8.978,14.9S80.126,54.276,80.126,48.7Zm5.578,0c0,2.515,0,10.173,3.4,10.173,2.256,0,3.4-3.423,3.4-10.173S91.36,38.53,89.1,38.53C85.7,38.53,85.7,46.186,85.7,48.7Zm50.417,14.579a25.884,25.884,0,0,0-3.959-.239h-8.414v-.468l.047-.061c.638-.836.72-2.412.72-3.692V38.582c0-1.279-.082-2.854-.72-3.691l-.047-.062v-.467h8.293a25.877,25.877,0,0,0,3.959-.24l.233-.032.7,6.052h-.5l-.063-.051c-1.491-1.218-4-1.319-6.225-1.319h-.375v6.638h.053a10.231,10.231,0,0,0,4.861-.865l.047-.022h.442v6.707H134.7l-.065-.057c-1.289-1.132-2.739-1.355-4.808-1.355h-.053v8.816h.5c2.367,0,4.76-.165,6.224-1.36l.064-.051h.5l-.7,6.093Zm-59.185,0a25.891,25.891,0,0,0-3.959-.239H63.193l.013-1.273,8.117-23h-.6c-2.312,0-4.693.1-6.185,1.319l-.064.051h-.5l.658-6.053.234.033a25.9,25.9,0,0,0,3.96.24H78l-.013,1.273-8.117,23h1.289c2.327,0,4.678-.165,6.1-1.358l.064-.053h.5l-.658,6.093Zm69.121-.238-6.787,0v-.468l.047-.06c.638-.837.72-2.412.72-3.692V38.582c0-1.279-.082-2.854-.72-3.692l-.047-.061v-.468h6.723a15.54,15.54,0,0,1,3.23.249c4.151,1.016,5.624,5.274,5.624,8.61a9.42,9.42,0,0,1-2.839,7.181l1.747,8.375c.19.989.544,2.831,1.392,3.719l.063.066v.481H148.5v-.45l.029-.052c.506-.9.277-2.252-.024-3.671l-1.331-6.692c-.626.06-1.26.095-1.885.1v6.546c0,1.28.082,2.855.719,3.692l.047.061v.469Zm-.765-24.283v9.105a5.434,5.434,0,0,0,2.673-.527c1.08-.661,1.465-2.561,1.465-4.119s-.384-3.457-1.462-4.119a3.585,3.585,0,0,0-1.879-.36C145.808,38.74,145.531,38.75,145.292,38.76ZM114.476,63.042v-.468l.047-.061c.637-.837.719-2.412.719-3.692V44.683l-4.1,9.045h-.538l-4.058-9.037v14.13c0,1.28.082,2.855.719,3.692l.048.061v.468h-6.789v-.468l.047-.061c.638-.837.719-2.412.719-3.692V38.582c0-.829,0-2.772-.717-3.689l-.049-.062v-.469h5.933l4.417,8.6,4.456-8.6h5.932v.467l-.047.062c-.637.837-.719,2.412-.719,3.691V58.821c0,1.28.082,2.855.719,3.692l.047.061v.468ZM187.768,26l-.063-.113,2.308-4.058h.44l.062.132a4.569,4.569,0,0,0,3.985,2.892,2.567,2.567,0,0,0,2.714-2.754c0-2.119-1.9-4.074-3.421-5.646-.175-.18-.346-.356-.508-.527l-.492-.585c-2.463-2.776-4.408-4.967-4.408-8.483,0-4.22,2.73-6.841,7.124-6.841a11.962,11.962,0,0,1,1.551.141,12.188,12.188,0,0,0,1.553.14,3.137,3.137,0,0,0,1.165-.185L200.057,0l.664,6.239h-.5l-.064-.054a6.924,6.924,0,0,0-3.965-1.6,2.257,2.257,0,0,0-2.552,2.392c0,1.914,2.346,4.307,4.059,6.055l.23.235c.246.285.487.527.722.761,2.191,2.449,3.859,4.6,3.859,8.148,0,4.5-3.171,7.527-7.889,7.527A7.731,7.731,0,0,1,187.768,26Zm-124.7,0-.063-.113,2.307-4.058h.44l.062.132A4.57,4.57,0,0,0,69.8,24.851,2.568,2.568,0,0,0,72.515,22.1c0-2.119-1.9-4.073-3.42-5.645-.175-.18-.346-.356-.508-.527l-.492-.584c-2.463-2.776-4.409-4.968-4.409-8.484,0-4.219,2.73-6.841,7.124-6.841a11.962,11.962,0,0,1,1.551.141A12.2,12.2,0,0,0,73.912.3,3.137,3.137,0,0,0,75.077.113L75.359,0l.663,6.239h-.5l-.064-.054a6.924,6.924,0,0,0-3.965-1.6,2.258,2.258,0,0,0-2.553,2.392c0,1.913,2.346,4.307,4.059,6.055l.23.235c.246.287.489.529.724.764,2.189,2.446,3.856,4.593,3.856,8.145,0,4.5-3.171,7.527-7.889,7.527A7.729,7.729,0,0,1,63.069,26Zm153.854,3.38a25.872,25.872,0,0,0-3.958-.24h-8.414v-.467l.047-.061c.637-.837.719-2.412.719-3.692V4.679c0-1.279-.082-2.855-.719-3.691l-.047-.062V.458h8.293A26.006,26.006,0,0,0,216.8.22l.232-.033.7,6.053h-.5l-.063-.051c-1.492-1.218-4-1.319-6.225-1.319h-.376v6.637h.053a10.229,10.229,0,0,0,4.861-.865l.047-.023h.442v6.708H215.5l-.065-.057c-1.289-1.132-2.739-1.355-4.808-1.355h-.053V24.73h.5c2.368,0,4.761-.165,6.225-1.36l.063-.051h.5l-.7,6.093Zm-110.064,0a25.888,25.888,0,0,0-3.96-.24H94.487v-.467l.047-.061c.638-.837.719-2.412.719-3.692V4.679c0-1.279-.081-2.855-.719-3.691L94.487.926V.458h8.293A25.992,25.992,0,0,0,106.738.22l.233-.033.7,6.053h-.5l-.063-.051c-1.492-1.218-4-1.319-6.225-1.319h-.376v6.637h.053a10.24,10.24,0,0,0,4.861-.865l.047-.023h.442v6.708h-.477l-.065-.057c-1.289-1.132-2.739-1.355-4.808-1.355h-.053V24.73h.5c2.368,0,4.761-.165,6.225-1.36l.064-.051h.5l-.7,6.093Zm44.73-.238h-6.908v-.485l.068-.068c.684-.685,1.208-3.015,1.63-5.2l3.306-17.9c.221-1.148.736-3.839.1-4.471l-.067-.067V.459h7.918l4.228,22.927c.208,1.081.841,4.371,1.669,5.2l.068.068v.484H156.7v-.48l.059-.065c.619-.679.344-2.207.052-3.825l0-.012c-.065-.358-.131-.729-.188-1.094l-.126-.821-4.856.785-.009.046c-.051.327-.11.662-.166.978-.292,1.67-.567,3.246.069,3.943l.06.065v.48h0Zm2.534-19.533-1.635,9.349,3.2-.517-1.567-8.833h0ZM26.89,29.14H19.982v-.485l.068-.068c.684-.684,1.208-3.014,1.63-5.2l3.306-17.9c.22-1.148.736-3.839.1-4.471L25.022.944V.459H32.94l4.228,22.927c.208,1.081.841,4.371,1.67,5.2l.067.068v.484H32v-.48l.059-.065c.619-.678.344-2.2.053-3.821v0l-.034-.193c-.053-.3-.109-.608-.156-.913l-.126-.821-4.856.785-.009.046c-.042.265-.09.544-.137.813l-.029.167v.005c-.291,1.666-.565,3.24.07,3.936l.06.065v.48h0ZM29.425,9.608l-1.635,9.349,3.2-.517L29.425,9.608h0Zm98.2,19.532v-.467l.047-.062c.637-.837.719-2.412.719-3.691V4.679c0-1.279-.082-2.854-.719-3.691l-.047-.061V.459h7.647a7.363,7.363,0,0,1,6.231,2.832c2.172,2.844,2.465,7.372,2.465,11.427,0,3.544,0,8.9-2.471,11.918-1.412,1.684-3.448,2.5-6.225,2.5Zm5.981-24.278V24.737c.3.014.624.03.929.03a3,3,0,0,0,2.808-1.311c1.411-1.984,1.41-5.927,1.409-8.537l-.007-.695c-.033-2.489-.084-6.251-1.4-8.081a3,3,0,0,0-2.809-1.312C134.246,4.831,133.944,4.845,133.609,4.862ZM116.8,29.139h-6.788v-.467l.047-.062c.638-.836.72-2.411.72-3.691V4.679c0-1.279-.082-2.855-.72-3.692l-.047-.061V.458h6.742A15.448,15.448,0,0,1,119.962.7c4.151,1.017,5.624,5.274,5.624,8.61a9.422,9.422,0,0,1-2.84,7.182l1.747,8.375c.191.99.547,2.833,1.392,3.719l.063.067v.481h-6.707v-.45l.029-.052c.5-.9.277-2.25-.023-3.67l-1.331-6.693c-.626.06-1.261.094-1.886.1v6.546c0,1.279.082,2.854.719,3.692l.048.061v.467h0Zm-.766-24.282v9.105a5.451,5.451,0,0,0,2.673-.527c1.08-.662,1.465-2.563,1.465-4.121s-.384-3.457-1.462-4.118a3.593,3.593,0,0,0-1.881-.36C116.548,4.837,116.27,4.847,116.031,4.857ZM81.989,29.139v-.468l.047-.061c.637-.837.719-2.413.719-3.692V4.925a7.475,7.475,0,0,0-4.141,1.262l-.064.052h-.5L78.71.18l.239.04a20.213,20.213,0,0,0,3.47.239h5.926A20.217,20.217,0,0,0,91.816.22l.238-.04.7,6.059h-.5l-.064-.052a7.562,7.562,0,0,0-4.181-1.262V24.918c0,1.279.081,2.855.719,3.692l.047.061v.468Zm96.921,0v-.467l.047-.061c.637-.837.719-2.412.719-3.692V10.779l-4.1,9.046h-.537l-4.057-9.037v14.13c0,1.28.081,2.855.718,3.692l.047.061v.467H164.96v-.467l.047-.061c.637-.837.72-2.412.72-3.692V4.679c0-.83,0-2.772-.718-3.689L164.96.928V.458h5.933l4.417,8.6,4.456-8.6H185.7V.926l-.047.062c-.637.836-.719,2.412-.719,3.691V24.918c0,1.28.082,2.855.719,3.692l.047.061v.467Zm-124.7,0v-.467l.047-.061c.637-.837.719-2.412.719-3.692V10.779l-4.1,9.046H50.34l-4.057-9.037v14.13c0,1.28.082,2.855.719,3.692l.047.061v.467H40.261v-.467l.047-.061c.637-.837.719-2.412.719-3.692V4.679c0-.83,0-2.772-.717-3.689L40.261.928V.458h5.933l4.417,8.6,4.456-8.6H61V.926l-.047.062c-.637.836-.719,2.412-.719,3.691V24.918c0,1.28.082,2.855.719,3.692l.047.061v.467ZM17.383,16.776a14.336,14.336,0,0,0-2.189-.132H10.41v-.4l.047-.061a3.691,3.691,0,0,0,.379-1.993V2.93A3.688,3.688,0,0,0,10.457.938L10.41.876V.48h4.716A14.322,14.322,0,0,0,17.315.347l.233-.033L17.964,3.9h-.428l-.063-.051a5.644,5.644,0,0,0-3.4-.712h-.108V6.628a5.5,5.5,0,0,0,2.589-.472l.047-.022h.371V10.07h-.4l-.065-.058a3.526,3.526,0,0,0-2.537-.728v4.7h.175a5.575,5.575,0,0,0,3.4-.734L17.6,13.2h.427l-.415,3.608ZM0,16.644v-.4l.047-.062a3.678,3.678,0,0,0,.38-1.993V2.93A3.681,3.681,0,0,0,.047.937L0,.876V.48H4.358A4.194,4.194,0,0,1,7.906,2.1C9.132,3.7,9.3,6.243,9.3,8.517c0,1.987,0,4.991-1.4,6.7a4.322,4.322,0,0,1-3.542,1.43ZM3.533,3.128V13.995c.154.007.29.012.4.012a1.588,1.588,0,0,0,1.49-.687c.766-1.076.766-3.337.766-4.688l0-.39C6.17,6.871,6.143,4.8,5.428,3.8A1.588,1.588,0,0,0,3.94,3.117C3.8,3.117,3.657,3.123,3.533,3.128Z" transform="translate(0 0.32)" fill="#fdfcec"></path>
  </g>
</svg>
