<?xml version="1.0" encoding="UTF-8" standalone="no"?>
<!-- Created with Inkscape (http://www.inkscape.org/) -->

<svg
   width="93.554291mm"
   height="133.87303mm"
   viewBox="0 0 93.554291 133.87303"
   version="1.1"
   id="svg1"
   inkscape:version="1.3.2 (091e20e, 2023-11-25, custom)"
   sodipodi:docname="logo.svg"
   xml:space="preserve"
   inkscape:export-filename="logo.svg"
   inkscape:export-xdpi="96"
   inkscape:export-ydpi="96"
   xmlns:inkscape="http://www.inkscape.org/namespaces/inkscape"
   xmlns:sodipodi="http://sodipodi.sourceforge.net/DTD/sodipodi-0.dtd"
   xmlns="http://www.w3.org/2000/svg"
   xmlns:svg="http://www.w3.org/2000/svg"><sodipodi:namedview
     id="namedview1"
     pagecolor="#ffffff"
     bordercolor="#000000"
     borderopacity="0.25"
     inkscape:showpageshadow="2"
     inkscape:pageopacity="0.0"
     inkscape:pagecheckerboard="0"
     inkscape:deskcolor="#d1d1d1"
     inkscape:document-units="mm"
     showguides="true"
     inkscape:zoom="0.7071068"
     inkscape:cx="243.95183"
     inkscape:cy="601.74785"
     inkscape:window-width="1920"
     inkscape:window-height="1001"
     inkscape:window-x="-9"
     inkscape:window-y="-9"
     inkscape:window-maximized="1"
     inkscape:current-layer="layer1" /><defs
     id="defs1"><inkscape:path-effect
       effect="bend_path"
       id="path-effect13"
       is_visible="true"
       lpeversion="1"
       bendpath="m 77.776598,223.8146 22.522402,1.33301 22.52293,-1.33301"
       prop_scale="1"
       scale_y_rel="false"
       vertical="false"
       hide_knot="false"
       bendpath-nodetypes="ccc" /></defs><g
     inkscape:label="Layer 1"
     inkscape:groupmode="layer"
     id="layer1"
     transform="translate(-57.696421,-83.274106)"><path
       style="fill:#000000;stroke-width:1.32845"
       d="m 102.60966,208.56083 c -14.320752,-7.52656 -24.845324,-18.13345 -31.818442,-32.06734 -5.415549,-10.82151 -8.449239,-23.41916 -9.195124,-38.18355 -0.137814,-2.72784 -0.165392,-6.0225 -0.04438,-5.30604 0.03334,0.1972 0.223326,1.35878 0.422302,2.58133 2.738349,16.8249 8.91979,32.0127 17.910572,44.00625 2.473655,3.2998 4.440148,5.55494 7.588283,8.70209 3.944437,3.94322 7.26175,6.69437 11.551696,9.58015 1.932153,1.29974 5.459313,3.39157 5.718723,3.39157 0.25834,0 2.22021,-1.40258 4.35371,-3.11258 6.76846,-5.42482 13.54976,-13.03284 18.82783,-21.12308 1.63923,-2.51265 2.35304,-3.71204 3.96589,-6.66386 0.77438,-1.41724 1.40794,-2.51249 1.40794,-2.43391 0,0.35664 -1.40598,4.5203 -2.24891,6.65987 -3.66645,9.30646 -10.07573,19.08125 -17.76755,27.09724 -3.25377,3.39089 -8.15127,7.89761 -8.57589,7.8916 -0.0883,-0.001 -1.0318,-0.46012 -2.0966,-1.01974 z m 13.91054,-6.68606 c 9.79617,-9.93709 17.01567,-22.90253 21.28721,-38.22964 2.01252,-7.22129 3.42256,-16.02711 3.69845,-23.09727 l 0.0385,-0.98871 -2.5813,-1.25534 c -11.51214,-5.59858 -27.43741,-9.32205 -40.607643,-9.49443 -1.51162,-0.0198 -2.673201,-0.0772 -2.581312,-0.12753 0.204888,-0.11236 5.455755,-0.76206 8.197835,-1.01432 2.72224,-0.25043 13.23738,-0.2479 15.91808,0.003 7.51051,0.7053 14.2958,2.09376 20.79392,4.25499 2.98642,0.99327 7.04215,2.54126 7.27924,2.77834 0.13621,0.13622 -0.11427,5.58722 -0.40625,8.83962 -2.37602,26.46979 -13.19952,46.66204 -32.08211,59.85223 -0.69312,0.48419 -1.2743,0.88033 -1.29147,0.88033 -0.0171,0 1.03435,-1.08092 2.33675,-2.40205 z M 83.219951,180.04678 c -9.686757,-12.21215 -16.008894,-27.3927 -18.964524,-45.53712 -0.282655,-1.7352 -0.540998,-3.32025 -0.574104,-3.52231 -0.05487,-0.33487 0.08768,-0.45534 1.610348,-1.36144 14.93993,-8.89011 36.948149,-12.05152 56.749539,-8.15192 9.34386,1.84015 17.19313,4.91376 24.42047,9.56255 0.73263,0.47124 1.31015,0.87873 1.28336,0.90552 -0.0268,0.0268 -0.75531,-0.24352 -1.61891,-0.60071 -10.81288,-4.47226 -25.15916,-6.81723 -38.13873,-6.23402 -10.839573,0.48707 -20.11613,2.20168 -29.828501,5.5133 -2.434252,0.83 -6.277475,2.30738 -6.97887,2.68276 -0.237048,0.12687 -0.263007,0.35004 -0.261718,2.25102 0.004,5.03271 0.759994,11.46948 2.001763,17.02966 2.068133,9.26029 5.916428,19.11364 10.703288,27.40508 0.435666,0.75464 0.771844,1.38988 0.747069,1.41165 -0.02471,0.0218 -0.542501,-0.58753 -1.15048,-1.35402 z"
       id="path2" /><path
       id="rect1"
       style="fill:#ffffff;stroke:#000000;stroke-width:0.799583;stroke-linejoin:round;stroke-dasharray:none"
       d="m 109.25517,210.95152 -4.51701,5.79585 -4.51703,-5.79585 v -92.56261 h 9.03404 z"
       sodipodi:nodetypes="cccccc" /><path
       style="fill:#ffffff;fill-opacity:1;stroke:#000000;stroke-width:0.799583;stroke-linecap:butt;stroke-linejoin:round;stroke-dasharray:none;stroke-opacity:1"
       d="M 104.73815,216.74737 V 118.38891"
       id="path1" /><rect
       style="fill:#ffffff;fill-opacity:1;stroke:#000000;stroke-width:0.686576;stroke-linecap:butt;stroke-linejoin:round;stroke-dasharray:none;stroke-opacity:1"
       id="rect3"
       width="13.593509"
       height="3.8838594"
       x="-111.5349"
       y="-113.84605"
       rx="1.9419297"
       ry="1.9419297"
       transform="scale(-1)" /><path
       id="rect2"
       style="fill:#ffffff;stroke:#000000;stroke-width:0.799584;stroke-linejoin:round"
       d="m 117.83133,121.50731 -13.09317,-2.48719 -13.093192,2.48719 v -2.59943 -2.59943 l 13.093192,-2.48719 13.09317,2.48719 v 2.59943 z"
       sodipodi:nodetypes="ccccccccc" /><rect
       style="fill:#ffffff;fill-opacity:1;stroke:#000000;stroke-width:0.686576;stroke-linecap:butt;stroke-linejoin:round;stroke-dasharray:none;stroke-opacity:1"
       id="rect4"
       width="13.593509"
       height="3.8838594"
       x="-111.5349"
       y="-96.767471"
       rx="1.9419297"
       ry="1.9419297"
       transform="scale(-1)" /><rect
       style="fill:#ffffff;fill-opacity:1;stroke:#000000;stroke-width:0.686576;stroke-linecap:butt;stroke-linejoin:round;stroke-dasharray:none;stroke-opacity:1"
       id="rect5"
       width="13.593509"
       height="3.8838594"
       x="-111.5349"
       y="-101.03712"
       rx="1.9419297"
       ry="1.9419297"
       transform="scale(-1)" /><rect
       style="fill:#ffffff;fill-opacity:1;stroke:#000000;stroke-width:0.686576;stroke-linecap:butt;stroke-linejoin:round;stroke-dasharray:none;stroke-opacity:1"
       id="rect6"
       width="13.593509"
       height="3.8838594"
       x="-111.5349"
       y="-105.30674"
       rx="1.9419297"
       ry="1.9419297"
       transform="scale(-1)" /><rect
       style="fill:#ffffff;fill-opacity:1;stroke:#000000;stroke-width:0.686576;stroke-linecap:butt;stroke-linejoin:round;stroke-dasharray:none;stroke-opacity:1"
       id="rect7"
       width="13.593509"
       height="3.8838594"
       x="-111.5349"
       y="-109.5764"
       rx="1.9419297"
       ry="1.9419297"
       transform="scale(-1)" /><circle
       style="fill:#ffffff;fill-opacity:1;stroke:#000000;stroke-width:0.794999;stroke-linecap:butt;stroke-linejoin:round;stroke-dasharray:none;stroke-opacity:1"
       id="path8"
       cx="-104.73814"
       cy="-88.168793"
       r="4.4971871"
       transform="scale(-1)" /><circle
       style="fill:#ffffff;fill-opacity:1;stroke:#000000;stroke-width:0.516214;stroke-linecap:butt;stroke-linejoin:round;stroke-dasharray:none;stroke-opacity:1"
       id="circle8"
       cx="-104.73814"
       cy="-88.168793"
       r="2.9201398"
       transform="scale(-1)" /><path
       style="fill:#ff0000;fill-opacity:1;stroke:#000000;stroke-width:1.60545;stroke-linecap:square;stroke-linejoin:miter;stroke-dasharray:none;stroke-opacity:1;paint-order:normal"
       d="m 60.631008,155.5028 c -0.723168,5.92011 -1.621824,14.2738 -2.020477,16.66281 27.415162,6.77461 59.036949,7.79069 91.731319,-0.71782 -0.6599,-4.08694 -1.56535,-9.38454 -2.71135,-15.82458 -42.81902,9.16483 -80.651587,1.33309 -86.999492,-0.12038 z"
       id="path16"
       sodipodi:nodetypes="ccccc" /><path
       d="m 82.36101,225.39987 c -0.01124,0.23935 -0.07905,0.47261 -0.203744,0.69978 -0.121923,0.22734 -0.288063,0.41621 -0.498547,0.56663 -0.23057,0.16304 -0.497031,0.28534 -0.799306,0.36694 -0.299486,0.0817 -0.657824,0.1104 -1.074696,0.0859 -0.44744,-0.0263 -0.848174,-0.0912 -1.201888,-0.19477 -0.350932,-0.10342 -0.706331,-0.24713 -1.065824,-0.43115 l 0.06084,-1.02347 0.05813,0.003 c 0.29747,0.27705 0.647509,0.49779 1.049928,0.66225 0.402397,0.16446 0.784252,0.25729 1.144861,0.27849 0.510448,0.03 0.912078,-0.0416 1.204363,-0.21477 0.295098,-0.17305 0.450058,-0.41773 0.465631,-0.73415 0.0134,-0.27236 -0.04447,-0.47723 -0.173357,-0.61451 -0.126142,-0.13714 -0.32402,-0.24955 -0.593562,-0.33723 -0.204162,-0.0673 -0.426672,-0.12597 -0.667551,-0.17608 -0.238121,-0.0499 -0.490844,-0.11041 -0.75808,-0.18145 -0.53975,-0.14786 -0.933656,-0.36852 -1.181811,-0.66208 -0.245268,-0.29617 -0.354101,-0.66837 -0.327482,-1.11687 0.03053,-0.51443 0.272351,-0.9226 0.723512,-1.22417 0.451408,-0.30438 1.008377,-0.43674 1.672416,-0.39711 0.429067,0.0256 0.820435,0.0904 1.174429,0.19427 0.353989,0.10391 0.666264,0.22463 0.936837,0.36216 l -0.046,0.9657 -0.05761,-0.003 c -0.223688,-0.21195 -0.522728,-0.39394 -0.897008,-0.54591 -0.37142,-0.15457 -0.755346,-0.24369 -1.152364,-0.26734 -0.435324,-0.0259 -0.790722,0.044 -1.06669,0.20974 -0.273197,0.1659 -0.418294,0.39196 -0.434635,0.67808 -0.01461,0.25588 0.03981,0.46061 0.163551,0.61427 0.123727,0.15365 0.34991,0.27885 0.678691,0.37564 0.174001,0.049 0.421937,0.11059 0.743866,0.18484 0.321939,0.0743 0.594398,0.147 0.817315,0.21813 0.451024,0.14813 0.786574,0.35151 1.00652,0.61005 0.219914,0.25852 0.319927,0.608 0.29925,1.04816 z m 6.131205,2.11875 -4.088224,-0.24003 0.254625,-6.14495 4.022736,0.24003 -0.02236,0.72633 -3.216986,-0.19158 -0.06615,1.68377 3.231309,0.19158 -0.02236,0.72634 -3.237487,-0.19158 -0.08966,2.28216 3.256899,0.19159 z m 7.289976,-0.0263 c -0.340367,0.13417 -0.712821,0.2472 -1.117321,0.33911 -0.401677,0.0893 -0.790373,0.12296 -1.165554,0.10094 -0.483583,-0.0284 -0.92565,-0.12043 -1.32562,-0.27615 -0.399994,-0.15572 -0.738362,-0.37394 -1.014954,-0.65472 -0.279316,-0.28369 -0.491189,-0.62951 -0.635892,-1.0376 -0.144642,-0.41088 -0.20954,-0.88442 -0.195479,-1.42097 0.02573,-0.98198 0.332427,-1.73994 0.9155,-2.27255 0.586133,-0.53543 1.374862,-0.77343 2.369434,-0.71407 0.347087,0.0207 0.700245,0.0845 1.059847,0.1913 0.36239,0.10424 0.751428,0.26925 1.167821,0.49506 l -0.01144,0.96981 -0.07408,-0.004 c -0.08429,-0.0711 -0.20665,-0.16506 -0.367065,-0.28201 -0.160392,-0.11693 -0.318136,-0.21581 -0.473308,-0.29663 -0.187855,-0.0966 -0.401834,-0.17951 -0.641953,-0.24889 -0.23734,-0.072 -0.507894,-0.11699 -0.811808,-0.13509 -0.684502,-0.0408 -1.230885,0.14839 -1.641256,0.56753 -0.40744,0.41642 -0.621427,1.00188 -0.639491,1.7556 -0.01906,0.79527 0.175696,1.42638 0.586877,1.89429 0.411101,0.46499 0.98114,0.71886 1.707935,0.7616 0.266306,0.0157 0.531691,0.005 0.795993,-0.0317 0.267079,-0.0367 0.500993,-0.0904 0.701726,-0.16111 l 0.02097,-1.50631 -1.652508,-0.0976 0.01311,-0.71808 2.459625,0.14558 c -0.01036,0.87904 -0.02073,1.75808 -0.03109,2.63712 z m 6.892989,-1.88883 c 0.003,0.44574 -0.0445,0.83791 -0.14223,1.17672 -0.095,0.33588 -0.25423,0.62043 -0.478,0.85376 -0.21272,0.22167 -0.4621,0.38903 -0.748,0.50213 -0.28591,0.11309 -0.61938,0.18081 -1.00014,0.20316 0,0 -0.008,4.5e-4 -0.008,4.5e-4 0,0 0,0 0,0 -0.385829,-0.0233 -0.722252,-0.094 -1.008973,-0.21193 -0.288668,-0.11876 -0.531089,-0.28297 -0.727211,-0.49265 -0.223755,-0.23884 -0.384406,-0.52072 -0.48224,-0.84575 -0.09507,-0.3249 -0.140971,-0.71972 -0.138095,-1.18473 l 0.02274,-3.67706 0.811928,0.0485 -0.01499,3.71833 c -0.0013,0.33293 0.01969,0.59692 0.06322,0.79215 0.04629,0.19537 0.123143,0.37463 0.230674,0.53781 0.121311,0.18602 0.285871,0.33053 0.493689,0.43356 0.208717,0.10227 0.458536,0.16235 0.749266,0.18025 0,0 0,0 0,0 0.003,-1.5e-4 0.005,-3e-4 0.008,-4.5e-4 0.29684,-0.0175 0.54926,-0.0763 0.75707,-0.17659 0.20782,-0.10303 0.37376,-0.24899 0.49781,-0.43793 0.10753,-0.16318 0.18298,-0.34649 0.22646,-0.54995 0.0463,-0.20639 0.0687,-0.45947 0.0675,-0.75938 l -0.0153,-3.73896 0.81192,-0.0485 c 0.008,1.22569 0.0153,2.45137 0.0229,3.67706 z m 7.52505,2.02698 -1.07103,0.0629 c -0.71053,-0.77376 -1.41666,-1.54752 -2.11838,-2.32128 l -1.1553,0.0683 0.0356,2.44313 -0.82516,0.0484 -0.0763,-6.14494 1.70997,-0.10203 c 0.36905,-0.022 0.67703,-0.0156 0.92408,0.0192 0.24699,0.0321 0.47023,0.10418 0.66986,0.21623 0.22458,0.1271 0.40099,0.29429 0.52913,0.50154 0.13079,0.20432 0.20014,0.47023 0.20768,0.79761 0.0102,0.443 -0.0925,0.82094 -0.30895,1.13409 -0.21649,0.31036 -0.51911,0.55274 -0.90791,0.72724 0.79013,0.84987 1.58571,1.69974 2.38674,2.5496 z m -2.02127,-4.30249 c -0.004,-0.17608 -0.0385,-0.32966 -0.10433,-0.46071 -0.0632,-0.13397 -0.16699,-0.2435 -0.3113,-0.32856 -0.11941,-0.0728 -0.26018,-0.11948 -0.42235,-0.14011 -0.16224,-0.0234 -0.35288,-0.0285 -0.57198,-0.0155 l -0.95722,0.057 0.0338,2.31932 0.82669,-0.0489 c 0.25903,-0.0153 0.48462,-0.0507 0.67666,-0.10611 0.192,-0.0582 0.35426,-0.15319 0.48672,-0.28498 0.12162,-0.12289 0.20974,-0.26033 0.26445,-0.41233 0.0574,-0.15492 0.0837,-0.34791 0.0789,-0.57903 -2e-5,-2e-5 -3e-5,-4e-5 -5e-5,-5e-5 z m 8.51408,3.92129 -0.87932,0.0516 c -0.22591,-0.55898 -0.4509,-1.11796 -0.67499,-1.67694 l -2.67183,0.15757 c -0.18372,0.58279 -0.36834,1.16559 -0.55387,1.74838 l -0.83765,0.0492 c 0.69537,-2.09252 1.37868,-4.18504 2.04993,-6.27756 l 1.08257,-0.0646 c 0.81633,2.00411 1.64471,4.00822 2.48516,6.01233 z m -1.83418,-2.31196 c -0.39869,-0.9843 -0.79453,-1.9686 -1.18752,-2.9529 -0.32324,1.02695 -0.64935,2.05391 -0.97832,3.08086 z m 7.94027,0.19346 c 0.0141,0.23936 -0.0286,0.4793 -0.12857,0.71985 -0.0972,0.24039 -0.24233,0.44768 -0.43562,0.62193 -0.21193,0.18913 -0.46382,0.34194 -0.7556,0.45844 -0.289,0.11634 -0.64208,0.18674 -1.05896,0.21121 -0.44744,0.0263 -0.85255,0.009 -1.21501,-0.0529 -0.35967,-0.0617 -0.72803,-0.1628 -1.10471,-0.30343 l -0.0475,-1.02347 0.0581,-0.003 c 0.32485,0.24019 0.69602,0.41835 1.11329,0.53453 0.41726,0.11617 0.80655,0.16366 1.16716,0.14245 0.51045,-0.03 0.90201,-0.14825 1.1742,-0.35473 0.275,-0.20666 0.40316,-0.46812 0.38522,-0.78455 -0.0154,-0.27236 -0.0946,-0.46924 -0.23716,-0.59054 -0.13984,-0.12147 -0.34835,-0.20991 -0.62547,-0.26529 -0.20999,-0.0428 -0.43731,-0.0749 -0.68197,-0.0963 -0.24191,-0.0215 -0.49944,-0.0519 -0.7725,-0.0909 -0.55199,-0.0833 -0.96674,-0.25598 -1.24431,-0.51821 -0.27499,-0.26518 -0.42242,-0.62188 -0.44329,-1.07038 -0.0239,-0.51442 0.17328,-0.94838 0.58977,-1.30149 0.41644,-0.35592 0.95595,-0.55371 1.61998,-0.59334 0.42906,-0.0256 0.82479,-0.008 1.18753,0.0533 0.36273,0.0612 0.68579,0.14404 0.96918,0.24862 l 0.0563,0.9657 -0.0576,0.003 c -0.24467,-0.18422 -0.56104,-0.32966 -0.94902,-0.43629 -0.3854,-0.10955 -0.77632,-0.1525 -1.17334,-0.12885 -0.43532,0.0259 -0.78111,0.13761 -1.03785,0.33501 -0.25396,0.19722 -0.37429,0.43895 -0.36033,0.72506 0.0125,0.25588 0.0882,0.45278 0.22735,0.59078 0.13917,0.138 0.37716,0.23563 0.7141,0.29294 0.17808,0.0281 0.43096,0.06 0.75872,0.0958 0.32777,0.0358 0.6062,0.0759 0.83523,0.12026 0.46385,0.094 0.81877,0.25656 1.06465,0.48771 0.24584,0.23112 0.38214,0.56689 0.40807,1.00705 z"
       id="text1"
       style="font-size:8.46667px;font-family:Verdana;-inkscape-font-specification:'Verdana, Normal';text-align:center;letter-spacing:0.79375px;text-anchor:middle;fill:#280b0b;stroke:#020000;stroke-width:0.529167;stroke-linejoin:round;stroke-opacity:1"
       aria-label="SEGURAS"
       transform="matrix(1.2135646,0,0,1.2135646,-17.074716,-104.13568)"
       inkscape:original-d="m 82.522564,225.12719 q 0,0.35966 -0.169499,0.71106 -0.165365,0.3514 -0.467155,0.59532 -0.330729,0.26458 -0.77308,0.41341 -0.438216,0.14883 -1.058334,0.14883 -0.665592,0 -1.198893,-0.12403 -0.529167,-0.12402 -1.079005,-0.36793 v -1.02526 h 0.05788 q 0.467155,0.3886 1.079004,0.59944 0.611849,0.21084 1.149285,0.21084 0.760677,0 1.182357,-0.28525 0.425814,-0.28525 0.425814,-0.76068 0,-0.40928 -0.202572,-0.60358 -0.198438,-0.1943 -0.607715,-0.30179 -0.310059,-0.0827 -0.673861,-0.13643 -0.359668,-0.0537 -0.764811,-0.13642 -0.818555,-0.17363 -1.215431,-0.59118 -0.392741,-0.42168 -0.392741,-1.09554 0,-0.77308 0.653191,-1.26504 0.65319,-0.49609 1.65778,-0.49609 0.649057,0 1.190626,0.12402 0.541569,0.12402 0.959115,0.30592 v 0.96739 h -0.05788 q -0.3514,-0.29766 -0.926042,-0.49196 -0.570508,-0.19844 -1.169955,-0.19844 -0.657324,0 -1.058334,0.27285 -0.396875,0.27285 -0.396875,0.7028 0,0.38447 0.198438,0.60358 0.198437,0.21911 0.698665,0.33487 0.264584,0.0579 0.75241,0.14056 0.487825,0.0827 0.826823,0.16949 0.686263,0.18191 1.033529,0.54984 0.347266,0.36794 0.347266,1.0294 z m 6.163966,1.757 h -4.055568 v -6.1557 h 4.055568 v 0.7276 h -3.237013 v 1.68672 h 3.237013 v 0.72761 h -3.237013 v 2.28616 h 3.237013 z m 7.226435,-0.45476 q -0.504362,0.23151 -1.103809,0.40515 -0.595313,0.1695 -1.153418,0.1695 -0.719337,0 -1.318783,-0.19844 -0.599447,-0.19844 -1.021127,-0.59532 -0.425814,-0.401 -0.657325,-1.00045 -0.23151,-0.60358 -0.23151,-1.40973 0,-1.47588 0.859896,-2.32751 0.86403,-0.85576 2.368849,-0.85576 0.525032,0 1.070736,0.12815 0.549837,0.12403 1.182357,0.42582 v 0.97151 h -0.07441 q -0.128158,-0.0992 -0.37207,-0.26044 -0.243913,-0.16124 -0.479558,-0.26872 -0.285254,-0.12816 -0.649056,-0.21084 -0.359668,-0.0868 -0.818555,-0.0868 -1.033529,0 -1.63711,0.66559 -0.599447,0.66146 -0.599447,1.79421 0,1.19476 0.628386,1.86035 0.628385,0.66146 1.711524,0.66146 0.396875,0 0.789616,-0.0786 0.396875,-0.0786 0.694531,-0.20257 v -1.50895 H 93.45317 v -0.71934 h 2.459799 z m 6.858495,-2.01745 q 0,0.66973 -0.14882,1.16996 -0.1447,0.49609 -0.47956,0.82682 -0.31833,0.3142 -0.74414,0.45889 -0.42582,0.14469 -0.99219,0.14469 -0.578777,0 -1.008725,-0.15296 -0.429948,-0.15296 -0.723471,-0.45062 -0.334863,-0.339 -0.483691,-0.81855 -0.144694,-0.47956 -0.144694,-1.17823 v -3.68349 h 0.818555 v 3.72484 q 0,0.50022 0.06615,0.78961 0.07028,0.28939 0.23151,0.52503 0.181901,0.26872 0.49196,0.40515 0.314193,0.13642 0.752406,0.13642 0.44235,0 0.75241,-0.13229 0.31006,-0.13642 0.49609,-0.40928 0.16123,-0.23564 0.22738,-0.53743 0.0703,-0.30593 0.0703,-0.75654 v -3.74551 h 0.81855 z m 7.44968,2.47221 h -1.06247 l -2.05879,-2.4474 h -1.15341 v 2.4474 h -0.81856 v -6.1557 h 1.72393 q 0.5581,0 0.93017,0.0744 0.37207,0.0703 0.66973,0.25632 0.33486,0.21084 0.5209,0.5333 0.19017,0.31832 0.19017,0.81028 0,0.6656 -0.33487,1.11622 -0.33486,0.44648 -0.9219,0.67386 z m -1.91409,-4.42351 q 0,-0.26458 -0.0951,-0.46715 -0.091,-0.20671 -0.30592,-0.34727 -0.17777,-0.11989 -0.42168,-0.16536 -0.24392,-0.0496 -0.57465,-0.0496 h -0.96324 v 2.32337 h 0.82682 q 0.38861,0 0.67799,-0.0661 0.28939,-0.0703 0.49196,-0.25631 0.18604,-0.17363 0.27286,-0.39688 0.091,-0.22737 0.091,-0.57464 z m 8.35504,4.42351 h -0.8723 l -0.60358,-1.71566 h -2.66237 l -0.60358,1.71566 h -0.83096 l 2.24069,-6.1557 h 1.09141 z m -1.72806,-2.41846 -1.079,-3.02204 -1.08314,3.02204 z m 7.8879,0.66146 q 0,0.35966 -0.1695,0.71106 -0.16537,0.3514 -0.46716,0.59532 -0.33073,0.26458 -0.77308,0.41341 -0.43821,0.14883 -1.05833,0.14883 -0.66559,0 -1.1989,-0.12403 -0.52916,-0.12402 -1.079,-0.36793 v -1.02526 h 0.0579 q 0.46715,0.3886 1.079,0.59944 0.61185,0.21084 1.14929,0.21084 0.76067,0 1.18235,-0.28525 0.42582,-0.28525 0.42582,-0.76068 0,-0.40928 -0.20257,-0.60358 -0.19844,-0.1943 -0.60772,-0.30179 -0.31006,-0.0827 -0.67386,-0.13643 -0.35967,-0.0537 -0.76481,-0.13642 -0.81856,-0.17363 -1.21543,-0.59118 -0.39274,-0.42168 -0.39274,-1.09554 0,-0.77308 0.65319,-1.26504 0.65319,-0.49609 1.65778,-0.49609 0.64905,0 1.19062,0.12402 0.54157,0.12402 0.95912,0.30592 v 0.96739 h -0.0579 q -0.3514,-0.29766 -0.92604,-0.49196 -0.57051,-0.19844 -1.16996,-0.19844 -0.65732,0 -1.05833,0.27285 -0.39687,0.27285 -0.39687,0.7028 0,0.38447 0.19843,0.60358 0.19844,0.21911 0.69867,0.33487 0.26458,0.0579 0.75241,0.14056 0.48782,0.0827 0.82682,0.16949 0.68626,0.18191 1.03353,0.54984 0.34727,0.36794 0.34727,1.0294 z"
       inkscape:path-effect="#path-effect13" /></g></svg>
