<svg height="54" viewBox="0 0 48 54" width="48" xmlns="http://www.w3.org/2000/svg"><g fill="#000549" fill-rule="evenodd"><path d="m25.9290699 15.3981294h-.0004593c0-.2204799.0013779-.441408-.0004593-.661888-.0009186-.1532605-.051901-.2890439-.166267-.3970432-.0647615-.0609457-.1290637-.1268208-.2053077-.1711857-.3738713-.2195837-.750039-.4373749-1.1298811-.6470997-.2884412-.1595343-.5727487-.1393685-.8547597.0331616-.2489413.1523642-.5075279.2885957-.7619808.4319973-.1304416.0739415-.2595052.1492273-.3904061.2222725-.1621334.0914186-.2480227.2334758-.2742029.4091427-.0156162.1088956-.0234243.2195837-.0243429.3293756-.0032151.3455082-.0018372.6910165 0 1.0365247.0004593.0806634.0124011.1613268.0142383.2419902.004593.2590192.1281451.4458894.3559585.5727102.3798421.2110692.7569285.4266198 1.1386078.6336558.3026796.1644638.5966324.1586381.8919631-.0403317.2223018-.1496754.463435-.2738074.6972193-.4077983.1428427-.0815596.2893598-.1577417.4303653-.2424383.1263079-.0766302.2186274-.185974.2388367-.3325125.0229651-.1667043.0330697-.3352012.0394999-.50325.0064302-.168945.0013779-.3383382.0013779-.5072832m-1.5455488 5.6020734h-.826283c-.0477673-.1317502-.0192906-.2711187-.0238836-.4073502-.0050523-.1474348-.0022965-.2944214-.0018372-.4418562.0009186-.1384722.0027558-.2773925.004593-.4225866.0597092-.0156846.1079358-.0286803.1557031-.041228.0068895-.013892.0192907-.0264396.0192907-.0394354.0027558-.3235499.0110232-.6475479.0032151-.9710978-.0068895-.293077-.1419241-.5184864-.4096968-.6659212-.5254406-.2890438-1.0481255-.582569-1.5721882-.8738535-.0390406-.0219584-.0780812-.0439167-.1171218-.0663232-.1492729-.0864891-.2186274-.2092768-.2154123-.3831512.0055116-.3087616-.0004593-.6179713-.0059709-.927181-.0082675-.4848767-.0202093-.9702015-.0298546-1.4550782-.0009186-.0515349-.0018372-.1026218.0013779-.1537086.0087267-.1460904.0831335-.2576747.2204646-.3078653.3072725-.1120325.5658592-.3069691.8469515-.4629183.2425111-.134439.4795106-.2778406.7178879-.4190016.0835929-.0497424.1667264-.1012774.2443483-.158638.1593775-.1183063.243889-.2809775.2562901-.4727772.0151569-.2348201.013779-.4700884.0257209-.7049085.0156162-.3145873-.1116102-.572262-.3233481-.7976714-.0404185-.0434686-.0845115-.0838003-.1272265-.1254764-1.3223283-1.29061447-2.645116-2.58122893-3.9674444-3.87273964-.0633835-.06229007-.1309008-.12368388-.1818833-.19538468-.1272264-.18149266-.0941567-.37284418.0780813-.5090757.1336566-.10486243.3348306-.10665495.481807.00627382.100587.07707836.195203.16177493.2861447.24960842.3972956.38270303.7904575.76899111 1.1877531 1.15169414.558051.53775602 1.1179393 1.07327139 1.6778275 1.60878676.0858894.08245593.1736159.16446372.2700692.23392387.0652207.04705366.1442206.08021528.2218425.1044143.1364125.04212422.2351622-.01254764.27604-.15057169.0202093-.06990828.0330697-.14474599.033529-.21734306.0018372-.5225196.0009186-1.0450392-.0018372-1.56711067-.0009186-.09545169-.0087267-.19224778-.0266394-.28545882-.0349069-.17880388-.1359532-.32534239-.2618018-.45574823-.0776219-.0806634-.1584589-.15774176-.2383773-.23571639-.7087019-.692809-1.4178631-1.38516988-2.1265649-2.07797889-.042715-.04167609-.0872673-.08155966-.1267672-.12592453-.0289359-.03316162-.0587905-.06946015-.0739475-.10934373-.0734882-.19314403.1451392-.4898061.3577957-.48711732.172238.00224065.3265632.05467186.4537897.1702894.0881858.07976715.1717786.16491185.2567494.24871216.4276095.42527539.8543004.85144703 1.2832877 1.27537803.0468488.04615739.1047207.08424844.163052.11651381.0679766.03764292.143302.04077983.2186274.01568455.0620057-.02061398.1060986-.05736065.1139067-.12368389.0059709-.05108682.0110232-.10262177.0096453-.15370859-.0064302-.25005655-.0078081-.5001131-.0252615-.74927339-.0183721-.2657411-.1258486-.49518367-.3242667-.68474267-.2691506-.25767476-.5323302-.52117521-.7982656-.78198688-.1065579-.10441429-.2135751-.20793233-.3196737-.31234662-.1129881-.11158438-.1625927-.24647151-.1451392-.40197263.0156162-.1434016.1106916-.24423086.2572087-.26887801.186017-.0313691.362848-.01165138.5098244.11741007.1010463.08828161.1947437.18418143.2967086.27156679.0785405.06766763.1621334.13085396.2480227.18955899.0353662.02419902.0817556.03898732.1253893.04526114.1198776.01837333.2163309-.06318634.1984181-.17790762-.0459301-.29218077-.0431743-.58615406-.0496045-.88012736-.0009186-.05063869-.0165349-.10082925-.0229651-.15146794-.0041337-.0358504-.0142383-.07483771-.0041337-.10710308.0468487-.14429786.0234244-.29218077.0312325-.43827115.0096453-.1761151.0114825-.35267833.0252615-.52834529.0174535-.2298907.1391683-.37822174.349069-.43961555.1690229-.0492943.2783366 0 .3412609.15953429.0243429.06139381.0477673.12592453.0546568.19045525.0215872.19672908.0587906.39076938.0564941.59063537-.0068896.53730789-.0027558 1.07461578-.0027558 1.61192367 0 .02912845-.0013779.05870503.0018372.08828161.0128604.13443901.1083951.1985216.2356215.1492273.1970403-.07663024.3830573-.17253006.5332488-.323998.0840521-.08469658.167645-.16939315.2558308-.25005655.0431743-.03943545.0918603-.07842276.1455985-.10038113.1309009-.0537756.2852261-.01209951.3692782.09007414.095994.11696193.1079358.28994012.0225058.41317587-.0293953.04212422-.0688952.07752649-.1060986.11382503-.2076042.20345102-.4175049.40421327-.6237311.60945682-.1740752.17297819-.3458539.34864515-.5144175.5270009-.2356215.2478159-.3458538.55119992-.3692782.88147174-.0124011.18238892.0110233.36701849.01975.55030367.0013779.02912845.0068895.05870503.0146976.08693722.0757847.28052939.2985458.30876158.5098244.20793233.071651-.03405788.1304416-.09814048.1887729-.15460486.5024755-.48846172 1.0031139-.9778197 1.5042116-1.46717768.0376627-.03629853.0730289-.07528584.1134474-.10799933.1460578-.11785819.3389644-.10038112.4625164.0403317.0192907.02195837.038122.04526113.0551162.06990828.094616.13802405.090023.2074842-.0252616.33385687-.0399592.04391674-.0840521.08424844-.1267672.12592453-.7408529.72372998-1.4821652 1.44701183-2.2216402 2.1720862-.0900231.08828161-.1772903.18149265-.2535343.28142565-.1974996.25946728-.2691506.5538887-.2337844.87474979.0082675.07259706.0133198.14609039.0137791.21958371.0004593.37508482.0027558.75061778-.0041337 1.1257026-.0022965.13802405.0431743.25767476.0950753.38135865.0422557.10082925.1561625.14922729.2618018.11248063.0909416-.03181723.1828019-.07304519.2604238-.12861331.1024242-.07349332.1947437-.16222307.2856854-.25005655.2526157-.24288647.5029349-.48756546.7523355-.73358884.7325855-.7210412 1.4633338-1.44387492 2.1972972-2.16357172.0785406-.0775265.1667264-.15057169.2627204-.20569168.1341159-.07797463.2824702-.05287934.3954584.05153495.1759123.16311933.1598368.29755833.0261801.44006368-.0151569.01613268-.0316918.0313691-.0477673.04705365-.448278.44678563-.8938003.89626003-1.3448341 1.33990875-.8396027.82545549-1.6824206 1.64777408-2.5238605 2.47098887-.053279.0524313-.1056393.1053106-.163052.1528124-.1713193.1416091-.2792551.3257905-.376627.5180383-.0826742.1635674-.0946161.3405788-.0987498.5162458-.0041337.1756669-.0238836.3531264.0261802.5270009.0101046.0336097.0013779.0730452-.0018372.1093437-.0238837.2639486.1024242.4561963.3173772.5933241.1763717.1124807.3646852.2061398.5484057.3074172.387191.2133099.773004.4293086 1.1634101.637689.1708601.0909704.2489413.2213763.248482.4095909-.0022965.8097709-.0036744 1.6190937.0009186 2.4288647.0013779.1837333-.0776219.3060728-.2351623.3948025-.3724933.2088286-.7436087.4194497-1.1151834.6305189-.1952031.1111363-.3904061.2222725-.583772.3360976-.10518.0618419-.1869356.1465385-.2452668.2540897-.0541976.1003811-.0794592.2021066-.0707324.317276.009186.1236839-.0027558.2487122-.0027558.3728442-.0009186.5888429-.0004593 1.1772376-.0009186 1.7660804 0 .0725971-.0045931.144746-.0078082.2384052"/><path d="m15.8128676 20.4726838c.005551 0 .0115647-.0004521.0171157-.0004521 0-.111224.0027756-.222448-.0004625-.333672-.0064763-.1971287-.0758646-.3585392-.2613627-.4629812-.2692266-.1514636-.5333648-.3119698-.8025915-.4643376-.1966002-.111224-.3978263-.2156661-.597202-.3228209-.156355-.0840962-.3182611-.0863568-.4829427-.0262235-.049497.017633-.0999191.0361704-.1457154.0614897-.4033774.2215437-.8058296.4444438-1.2078192.667344-.0328438.0185373-.0642999.0397874-.0939056.0628461-.1808722.1428731-.2905057.3201081-.2803287.5556678.0027755.0664632-.0064763.1347348.0032381.1998415.031456.2134054.0268301.4259066.0004626.6388598-.015728.1247879-.0166532.2509322-.0300683.3757201-.03932.3580871.0786401.6411205.4047652.8278502.0522725.0298406.104545.0605855.1572801.0895218.1725456.0931388.3460164.1849212.5180994.2785121.1656068.090426.3293632.184017.49497.274443.2678389.1464901.5356777.1401603.8016663-.0058777.0333064-.0180852.0656876-.0370747.0985314-.055612.2234303-.1256922.4473233-.2509322.6702911-.3775286.1508039-.0854526.3034582-.1681924.4500988-.260427.2447095-.1532721.3631322-.3666775.3251999-.6596578-.0203539-.1532721-.0166532-.3101612-.0208165-.4652418-.0009252-.0438566.0143403-.0886175.0120273-.1324741-.007864-.1550807-.0198913-.3097091-.0305308-.4647898m3.1872364 2.9596436c-.0171158.0406917-.0254424.0691759-.0397826.094043-.0883545.1550807-.1776341.309257-.2724648.4738324-.0610617-.0271278-.1161098-.0483779-.1679197-.0759579-.4598132-.2455066-.920089-.4896569-1.3771267-.7396848-.1716204-.0944952-.3349143-.2039107-.5014462-.3074485-.0319186-.0198937-.0615243-.0434044-.0920552-.0646546-.2123282-.1487508-.4371463-.1636711-.6652026-.0456651-.1947498.1003729-.3844112.2102405-.5740726.3187517-.3672955.2097884-.7332032.4213853-1.0995734.6320779-.0198914.0113032-.0407079.020798-.0592114.0339097-.1697701.1161975-.3381524.1030857-.5125483.0058777-.6924954-.3861191-1.3854533-.7708818-2.079799-1.153836-.205852-.1130325-.2997575-.2753472-.2951316-.5095506.0092517-.4453481.0018503-.8911484.0032381-1.3364965.0004626-.0664631.0138776-.1324741.0143402-.1989372.0013878-.118006.0097144-.2378205-.0064762-.3540179-.0379323-.2672089-.2003009-.4607206-.4209558-.6085671-.1059328-.0714366-.2220426-.1284049-.3344516-.1898946-.1656068-.0908782-.3344517-.1754265-.4972829-.2703738-.21001533-.1225273-.43159534-.1555328-.65225017-.0569684-.23129437.1035378-.47415346.1550806-.71932549.2043628-.52087493.104442-1.03388585.2369161-1.54042052.3956138-.34694156.1080591-.70220971.1894425-1.05377716.2834856-.65132495.1740701-1.30172473.351305-1.95397485.5222102-.20492682.0533514-.41309175.0958516-.62171928.1351869-.19937574.0375268-.35064226-.0474736-.41540469-.2201873-.06522501-.1727137.01202731-.3684861.1850355-.4530344.06013654-.0289363.12859967-.0456651.19474986-.0587769.73690387-.1451337 1.46085525-.3427146 2.18850735-.5253752.63929764-.1605061 1.2739694-.3377411 1.91141669-.5054814.24193391-.0632982.48571818-.1193623.72811468-.1794956.04440852-.0108512.08927963-.0217023.13091262-.0388832.10963353-.045213.15034134-.1781393.06291207-.2554535-.15681759-.1383518-.28680503-.3047357-.4810923-.4046564-.34277826-.1758787-.67908027-.3635126-1.01677006-.548886-.11194647-.0614897-.22250518-.1270485-.32936318-.1975808-.22435554-.1482987-.46952758-.2125012-.73459093-.156437-.28865538.0605854-.57407263.1374475-.86041506.2097883-.77159803.1939638-1.54227088.3906404-2.31433149.5832478-.16884489.0420481-.3409279.0736972-.51301092.1021814-.20168869.0339098-.26228781-.0081383-.30345821-.1998415-.01063954-.0506385-.0166532-.1030856-.01572802-.1546284.00138777-.114389.05597324-.2011979.16606936-.2427939.10639541-.0397875.21510377-.0746015.3247373-.1026335.52873893-.1356391 1.05747787-.2681132 1.58667939-.4010394.1397018-.0352662.28171654-.062394.41956799-.1021814.0865041-.0248672.17439596-.0574205.25026051-.1035378.25442381-.1541764.18549809-.4507737.02081649-.5624498-.24933533-.1695488-.50884761-.3246294-.79380228-.4335928-.23545767-.0899739-.47785417-.0831919-.71701255-.0230586-.2715396.0682716-.54030366.1487508-.81045548.2238044-.19660022.0547077-.3945882.1071548-.59118842.1636711-.1558924.0447608-.31548552.0321012-.47415346.0429523-.20400164.0135639-.38811196-.2540971-.28079137-.4489652.07262643-.1324741.15357947-.260879.32196177-.2902675.057361-.0099468.11934789-.0067819.17763408.0009043.21787929.0289363.40569032-.0221544.55741943-.1826606.0411704-.0438566.0865041-.0840962.12397379-.1306656.06938831-.0881653.0698509-.1849212-.00971437-.2613312-.06938831-.0673673-.14664063-.1311177-.23036919-.1790435-.46582687-.2649482-.93442927-.5253751-1.40349425-.7853499-.07216385-.0402396-.15172911-.0673674-.22666849-.1035378-.06106171-.0298406-.12212342-.0610376-.17809666-.0985644-.03654451-.024415-.07123867-.0574205-.0948307-.094043-.08696668-.1356391-.01063954-.4240981.13553851-.4941782.11703495-.0565163.24378427-.090426.37469688-.0483779.09344293.0298405.18873621.0601333.27431512.1062505.22574331.1220752.44778591.2509322.66890333.3806936.2669137.156437.5301267.3196559.79796558.4738323.07725232.0443087.16375642.0831919.2507231.0990165.16653195.0298406.27755325-.0628461.29883233-.2278736.01202731-.0985643-.01434025-.191251-.04625887-.2830334-.04625888-.1333784-.09298034-.2667568-.1360011-.4010394-.03191862-.1017293-.02544238-.2034585.00786401-.3060921.04718405-.1433252.15172911-.2210916.29513162-.2473151.07308902-.0131118.15172911-.0099469.22666849-.0022607.09806881.0094948.1683823.0637504.20353904.1555328.01619061.0415959.02868051.0845483.04024522.1275007.09760623.3585391.1975254.716174.29004315 1.0760696.04949699.1939638.09205516.3901882.12628672.5873169.05227253.3033793.22111742.5090985.50190879.6433812.156355.0746014.30253304.170453.44871108.2635918.13230038.0845483.27847843.114841.43113271.1270486.10778318.0085904.17532114-.0357183.20585199-.1369955.03654451-.1220751.05088477-.2459587.00878919-.372103-.0823408-.2468631-.16329383-.4941782-.23730803-.7433019-.114722-.3847627-.2257433-.7704297-.36359475-1.1479583-.04625887-.1265964-.06661278-.2586184-.057361-.3942574.01572801-.2369162.3164107-.4417311.54585471-.3693903.12859968.0406917.19151174.1378997.2220426.2604269.11888531.4756409.23175696.952186.35804369 1.4255662.14201474.5312529.29651938 1.0588887.44454778 1.5878809.02590497.0931388.05134735.1862776.06707537.2812249.05088476.2975016.20585199.5172368.47739158.6664397.43020754.2369162.85162588.4878484 1.28183341.7238603.1850355.1012771.38071054.1840169.57499781.2681131.13831404.0601333.20909012.0284842.27894102-.0985643.04579628-.0827398.05551064-.1645754.02729273-.2563578-.09390551-.3056399-.18364773-.6121841-.27292736-.9187283-.30993446-1.0629579-.61894374-2.1259157-.9288782-3.1884214-.04764664-.1645753-.09806881-.3277943-.14802839-.4914654-.05504806-.1785914-.00740142-.3390976.10130693-.4824228.12443637-.1636711.33445166-.1903468.48062971-.0727929.06244948.0506385.08835445.1198144.10917094.191251.05134735.1785914.09806881.358087.14941616.5366784.16421901.5710403.3330639 1.1411763.49265702 1.713573.12351119.4435396.23129437.8911484.35573074 1.334688.14849099.5289922.30947187 1.0548195.46120098 1.5833596.05551065.1926074.11055871.3865712.14617803.5832478.0462589.2527407.1790219.4358534.4047652.5606413.2974445.1641232.5907258.3363848.8932588.4905612.2063146.1048942.4251191.0999207.6309711-.0153725.1517291-.0845483.2988323-.1767828.4487111-.2644961.3450912-.2021021.690645-.4033 1.0366613-.6044979.0582862-.0343619.1161098-.0714365.1776341-.0994686.1970628-.0881654.3973637-.1012771.5921136.0018085.2807914.1478466.5564943.3042836.8372856.4521301.3474042.1831127.6980464.3594434 1.0459132.542104.0994566.0524471.1984505.1089633.2881928.1758786.1073206.0795749.1632938.1935117.1730082.3259858.0083266.111224.0208164.2219959.021279.3332199.0027756.4231937.002313.8463875.0004626 1.2695812-.0009252.1261443-.0180409.2522886-.0143402.3779808.0032381.1030856.0148028.2079798.0425581.3069963.0485719.173618.1693075.2943367.3302884.3784329.2613626.1365433.5213375.2748951.7822376.4114384.3682206.1926074.7350535.3874755 1.0815325.6167054.0744767.0492822.1452528.1039899.2197296.1573413"/><path d="m15.7731605 31.7784664c-.0152411-.1625967-.0254018-.3115299-.0434139-.4590967-.0198595-.1653294-.1011451-.2942226-.2475514-.3816696-.4346006-.2591528-.8692011-.5178502-1.3019542-.7792802-.2664873-.1607749-.5251231-.1534877-.7916103.00501-.2914272.173983-.589782.3365798-.884904.5050974-.1182335.0674071-.2378525.1325369-.3514676.2063203-.2036757.1325368-.3122103.3169953-.3080537.5638508.0041567.2391129-.006004.4786812.0018474.717794.0096989.2755491.0323295.5501873.0494179.8257364.0013856.0223172.0013856.0450899.0046185.0669516.021707.1307151.0789763.2413902.1898202.3197281.0489561.0350699.1002214.067407.1528723.0970115.2360052.1348141.4733959.2673509.7094011.402165.1704225.0970115.3417687.1931121.5094201.2946782.230463.139824.4563075.1434677.6812283-.0086537.0064659-.004099.0129318-.0081981.0193977-.0122972.3214473-.1972112.6452039-.3912342.9869727-.5542864.0748196-.0355253.1468682-.0783379.2147601-.1252495.2064468-.1439232.3533149-.3333917.38703-.5834354.018474-.1389132 0-.2823809-.0046185-.4240268-.003233-.1042988-.0203214-.2085975-.0152411-.3124408.0055422-.125705.0281729-.2504992.0420284-.363907m2.9022632-2.7782636c.0341769.0478225.0618879.0819815.0845185.1188732.0822092.1329923.1621092.2668955.2401618.3953333-.0438757.0833479-.1205428.1074869-.184278.1443786-.5810069.3374907-1.164323.6717933-1.7457917 1.0083731-.1113058.0642188-.2230734.1279823-.3279133.2017657-.1981335.139824-.2951219.3324807-.2941982.5752372.0023093.5533754.0013856 1.1072063.0009237 1.6605818-.0004618.0819816-.0032329.1644186-.0120081.2459447-.0226306.2076866-.1283942.362996-.3140578.465473-.1057635.058298-.2119889.1161405-.3172907.1758049-.5514485.3128962-1.1033588.6262479-1.6548073.9395996-.0198595.0113863-.0387954.0232281-.0586549.0346144-.1925913.1129524-.38703.1147742-.5810069.0063764-.1256231-.0696843-.2484751-.1439232-.3731745-.2145184-.4073514-.2313702-.8165502-.4590967-1.2215923-.693655-.2600214-.150755-.5195809-.1425568-.7805259-.0145745-.1219284.0596643-.2383145.1311705-.356548.1976666-.1251612.0705952-.2489369.1434677-.3740982.2131521-.2346196.130715-.3967289.3201835-.48309475.572049-.02401618.0710507-.05080346.1411904-.070663.213152-.17642656.6417334-.35377683 1.2830113-.52697045 1.9256555-.26925835.9960759-.53436006 1.9930626-.80269471 2.9895939-.04249017.1589531-.09052253.3165399-.14086414.4732157-.02540173.0778825-.05865491.1539431-.09283178.2286374-.01524104.0332481-.03694798.0660407-.06281156.0915461-.07481964.0728725-.38287336.0551098-.44845601-.0282381-.02632543-.0337035-.04572312-.0806152-.04941792-.1225169-.00738959-.096556-.01524104-.1958448-.00046185-.290579.02678728-.1689731.06234971-.3379462.10807282-.5032756.36763233-1.3335666.73803575-2.6662222 1.11074843-3.9984224.02724913-.0961006.03925722-.1903794.03140577-.2873909-.00969884-.1220614-.07851444-.1903794-.20229015-.2013102-.13809304-.0122973-.26648725.0054654-.39118665.0815261-.31590517.1922012-.63873808.3743824-.95926174.5592963-.202752.1170515-.40504215.2345583-.61056525.3470553-.23138668.1270714-.37686932.3133517-.44568492.5665836-.25632656.9377778-.51727161 1.8737338-.77544557 2.8110562-.03971907.1439232-.07481965.2896682-.11222947.4345022-.03417687.1348141-.10299247.2482219-.21476009.334758-.132089.1020215-.27572424.0915461-.38194966-.0355253-.10761097-.1279823-.14917744-.2760046-.10576358-.4404231.05911676-.2240829.11961907-.4477104.18243062-.6708824.1311653-.4682057.2632543-.935956.39765255-1.4027954.02678728-.0947342.04987977-.1881021.03556243-.28648-.02909653-.1967557-.17781212-.3069753-.37271268-.2627964-.07897629.0182182-.15749073.0555653-.22630633.0997443-.2595595.1680621-.51265312.3461443-.77313632.513751-.12885606.0828925-.20506125.1935675-.24247107.3374907-.08544219.3256489-.17411732.6499315-.26048321.975125-.06281155.2386574-.12608496.4773148-.18612541.7168831-.02632543.1052097-.07481965.1949339-.16026183.2641628-.12885606.1047542-.2687965.1006551-.38749186-.0145745-.13162716-.1284378-.15795259-.2828364-.11084392-.4549976.04710866-.1730722.09652658-.3456889.1367075-.5201274.01616473-.0715061.01847398-.1484777.01477919-.2222611-.00600405-.1161405-.11961907-.2382019-.25863581-.2345583-.10945837.0031882-.20875605.0214063-.30251153.0765161-.24154737.140735-.48448029.2787373-.72556581.4199277-.30620632.179904-.61148894.3607188-.91630972.5429001-.16626587.0992887-.3320699.0810706-.49925948.0050099-.08544218-.0391689-.12977975-.1079423-.12192831-.1972111.01893584-.2254493.08913699-.4199278.31867627-.528781.17688842-.0842589.34407799-.1881021.51680976-.28147.18566357-.1006551.37178898-.2013103.55976179-.2983218.1274705-.0660407.25586471-.1311705.38795371-.1867357.15564333-.0660407.24847511-.1935676.34223059-.3197281.06281156-.0851697.04156647-.1881021-.04295201-.2596082-.12239016-.1038433-.26094506-.1762603-.42120689-.2099639-.14825374-.0305153-.29512193-.067407-.44152827-.1070314-.10345433-.0277827-.19674796-.0751498-.26556355-.1625968-.05588381-.0715061-.07574335-.1471113-.02909653-.228182.04433756-.0778824.08913698-.1571313.14594449-.2259047.09283178-.1134078.21753119-.1580422.36532308-.1279823.03694797.0077427.07389594.0168518.10992022.0282381.41935948.1279823.83918082.2568755 1.25854031.3853133.07943814.0245945.15933813.0478226.23969997.0701398.30158783.0847142.60132826.0819815.88628949-.053288.2045994-.0965561.39949996-.2131521.59855716-.3215499.00646589-.0031882.01246994-.0081982.01847398-.0127527.10253063-.082437.20413755-.1753494.18612542-.3151735-.02124509-.164874-.11869537-.2905791-.28449939-.3465998-.10022138-.0337035-.2045994-.0560207-.30713002-.0815261-.66829646-.1666958-1.33705476-.3324807-2.00488936-.499632-.05865491-.0145745-.11869537-.0282381-.17411732-.0519216-.13393641-.0564762-.2018283-.1958448-.15656704-.3329362.02309248-.0692289.0641971-.1343587.10483987-.1967557.04341387-.0660407.10899652-.1020215.19166761-.1015661.12885606.0004555.25909766-.009109.38656816.00501.29327454.0327926.58331612.0842588.86735366.1712504.78144962.2391128 1.56428479.4732157 2.34758181.7068631.25725025.0769716.51172941.0687734.74681089-.0692288.60502305-.3561643 1.24329928-.6563079 1.8229206-1.0548293.04341386-.0296045.09144623-.0555653.1293179-.0906352.08498034-.0792488.07435779-.2136075-.02863468-.2673509-.08590404-.0446344-.18104506-.0756052-.27526239-.1015661-.44522307-.1216059-.89090799-.242301-1.33797846-.3584415-.59347681-.1534877-1.18880102-.2987772-1.78181598-.4554531-.45353636-.1197841-.90430162-.2495882-1.35599059-.378026-.15979998-.0455453-.31682886-.0997442-.47570515-.1498441-.09006068-.028238-.12977975-.0910906-.14317339-.1817257-.02401618-.1625968.03463873-.2960445.14548264-.4071751.08313294-.0833479.18797281-.1247941.31082482-.0929124.05126531.0132082.10345433.0232281.15333409.0409908.42721093.1562204.8696629.2586973 1.31072932.3680061.82994384.2058647 1.65988767.4126404 2.48936965.6216934.44799417.1129523.89229354.2382019 1.33105072.3825805.19305315.0637635.3934959.116596.59486235.1411905.35608609.043268.69185082-.0419017 1.00129002-.2222611.1431734-.0833479.285885-.1680622.4299821-.2504992.2055231-.1175069.3075918-.3037872.3486965-.5251373.0392572-.2136075.0364861-.4304032.0378716-.6471988.0036948-.470483.0180122-.940966.0249399-1.4114491.0027711-.1826366.0840567-.3083417.2452422-.3976105.3768693-.208142.7500438-.4231159 1.1250657-.6349015.3154434-.1780822.6313485-.3561643.9472537-.5342465.0198595-.0109308.0401809-.0209508.0591167-.0327926.1570289-.096556.3066682-.0938233.4692393.0018218.273415.1603195.5583762.30151.8336386.4590967.1634948.0933679.3168289.2035875.4770907.3037872.1020688.0637634.2032139.1320814.3122104.1817258.2798809.1270714.5629947.1038433.8359479-.0209509.1574907-.0719616.3099011-.1580422.4549219-.252321.4378335-.2837472.8922935-.53789 1.3652276-.7596957.1214664-.057387.2392381-.1225168.3657849-.1876466"/><path d="m36.0751075 20.402762c0-.1036597.0013853-.2068686-.0004617-.3105283-.0032323-.2163332-.0951215-.3857942-.2895201-.4948622-.4331258-.2429241-.8667134-.4853976-1.3016862-.7247162-.1907046-.104561-.3901826-.1063638-.5896606-.0198305-.0346316.0148729-.0688014.0315486-.101586.0495763-.3684801.2046152-.737422.4083289-1.1045169.6147469-.0720337.0405624-.1422204.0860825-.2059425.1379124-.171311.1388138-.2696647.3073734-.2636619.5372274.0101586.3912025.0013853.7833065.0009235 1.1754104 0 .0887867-.0004617.1775735.0032323.2659095.0073881.1978548.0868099.3533443.2687412.4579053.4432843.2550929.8833364.5169462 1.3252356.7738419.0992772.0576888.2082513.0802235.3255369.0842798.1653082.0049576.3130696-.0356048.4548283-.1144763.3481629-.1946999.6981729-.3862449 1.0463359-.5804941.0655691-.0365062.1274442-.0797729.1897811-.1216874.1445292-.0982514.2230274-.2397693.2604296-.4024699.0147761-.0639986.0124673-.1325041.0110821-.1987561-.0083116-.3763297-.018932-.7526593-.0290906-1.1289889m-6.7425402 3.5974408c-.1191327-.2086714-.2248745-.3939067-.3324633-.5822969.0766513-.0811249.1611524-.1293492.2461152-.1757707.40265-.2212908.8062235-.4407789 1.209797-.6607176.2382653-.1298.4769924-.2582478.7143343-.3889491.1509937-.0833784.2696647-.2010096.3098373-.366865.0295523-.1203354.0484842-.2519381.0304758-.3722734-.0295523-.2001082-.0041558-.3975123-.0073881-.5958177-.0027705-.1617992.0180085-.3240491.0212407-.486299.0036941-.1919957.0032323-.3848928-.0013852-.5768885-.0060028-.2366145.0918891-.4132866.3015257-.5327205.3403131-.1933478.679241-.3898505 1.0204776-.5818462.2950612-.1663061.5919694-.3303588.8902628-.4917073.0854246-.0464215.1791608-.0788715.2687412-.1180819.1098976-.0477736.2221039-.0473229.332925-.0085632.0849629.0297458.1708492.0612944.2507328.1027583.3398513.1789256.6783174.3614567 1.0167835.5430865.1195945.0639985.2378036.1302506.3573981.1942491.0600281.0319993.1214414.0603931.1819313.0910403.2645853.1334054.5162416.1279971.7715918-.0365063.2207187-.1424193.4575988-.2609519.6861673-.3916532.1680787-.0959978.3001405-.2253471.370789-.4056247.0350933-.0896882.0637221-.1820805.0932744-.2735714.2844408-.8743467.4986949-1.7667211.7203371-2.6577435.0784983-.3154859.1810078-.6260141.2719735-.9387959.1634611-.5620156.3075285-1.1280875.3989559-1.7067788.0147761-.0941951.0415579-.1879394.0766513-.2771769.0729572-.1843339.2308772-.2677123.4192731-.3010637.1269825-.0225347.2613531.0689562.2918289.1933478.0120056.0495764.0175467.103209.0129291.1536867-.0096968.1027583-.0193937.2073193-.0452519.3069227-.1288295.4939608-.27105.9847668-.3934149 1.4805304-.2327243.9419508-.4940774 1.8757891-.7762094 2.8046697-.0406344.1338562-.0757278.268163-.0757278.4123852-.0009235.1775735.1726962.2663602.3139931.2149811.0424814-.0153236.0845011-.0333514.1237502-.0549847.5822725-.3172887 1.1636216-.6354788 1.7449706-.9545702.0392491-.0216333.075266-.0491257.1131298-.0743646.1833166-.1230395.2964465-.2920498.3472395-.502524.1726962-.7120967.3477012-1.4232921.5176268-2.1358396.0604899-.251938.1089741-.5065802.1648464-.7594196.0369404-.1667569.0858864-.3294575.1740815-.4790879.02632-.0446188.0517165-.0905896.0826541-.1325041.1491467-.2005589.3777152-.2257978.5702669-.0621958.0854245.0725618.1246737.1554895.0918891.2744727-.1699257.6215073-.3324633 1.2443666-.4991567 1.8667752-.0378639.1428701-.0798835.2848388-.1228267.4268074-.0452519.1518839-.0032323.2925005.0549488.4308636.0290905.0698576.0877334.1005048.1629994.0959979.0521782-.0031549.1062035-.0085632.1565348-.0234361.3301545-.0982513.630295-.246079.8805659-.4858483.1837783-.1766721.3102991-.3821887.3698654-.6255635.0877334-.3592033.1699257-.7202093.2548886-1.0803139.0327845-.1365603.0651074-.2735714.1006625-.409681.0249347-.0946458.0711102-.1775735.1431439-.2483325.1209797-.1189832.2715117-.1293492.4225054-.092843.0567958.0135208.1117446.0752659.146838.1279972.0840393.126645.077113.2668109.0332463.4065261-.0447902.141518-.0974302.2807825-.1329853.4241032-.0230878.0919416-.0300141.1897422-.0281671.2848387.0041558.2131804.1514555.2807825.3352339.266811.0983537-.0076618.1911664-.0387597.2761292-.0941951.1819313-.1198847.3670949-.2361638.5522585-.3515415.2618148-.1631513.5264002-.3222463.7872915-.486299.1500702-.0946457.3144549-.1451235.4889981-.1685596.0369404-.0049576.0757277-.0090139.1126681-.0054083.2636619.0256896.3777152.2713179.2234892.4844962-.0295523.0414639-.073419.0739138-.1131299.1072652-.2304155.196052-.4991566.3348658-.761895.4813414-.3024492.169461-.6104395.328556-.9156593.4926087-.0531018.0283937-.1062036.0576888-.1574583.0892374-.1653081.1018569-.2225657.262304-.1579201.4389762.0332464.0910402.1043566.1478276.1925517.1766721.0923509.0306472.1907046.0459708.2862878.0680548.1098976.0261402.2211805.0482243.3296928.0797728.0572575.0166757.1126681.0441681.1629993.0757167.1606906.1014062.2036338.312331.0983538.4682712-.0494078.0734631-.1219032.1131242-.2105601.1113215-.1357559-.0022535-.2761293.0072111-.4058823-.0234361-.3971089-.0937444-.7905238-.201911-1.1839387-.3096269-.1680787-.0459708-.331078-.0950965-.5107006-.0878854-.1163621.0049576-.2290302.0153236-.3315397.060393-.2969082.1307013-.5928929.2632054-.8814895.409681-.2059426.1045611-.2299538.3145845-.0738807.4817921.0729572.0779701.1569965.1383631.2636618.164954.1029713.0256896.2045573.0540833.3079903.0779701.6122866.1401659 1.2185703.3015144 1.8179278.4876511.0863481.026591.1717727.0585903.2553502.0932937.0757278.0315486.126059.0932937.1191327.1730666-.0083116.094195-.0290905.1892915-.0595663.2794303-.0235495.0698576-.094198.09735-.1662317.092843-.1057418-.0067604-.2119453-.0153236-.3153783-.0369569-.1999398-.0410132-.3984942-.088336-.5961252-.1397152-.6663118-.1726158-1.3312384-.3492879-1.9970885-.5223545-.197631-.0513791-.3966472-.0978006-.5956634-.1428701-.0581811-.0135208-.1195944-.0225347-.1791608-.022084-.1126681.0013521-.2244127.0157743-.3384661.0022535-.0572575-.0067604-.1191327.0130701-.1773137.027943-.1412969.0365063-.2632001.1122229-.3791005.1965027-.1953222.1424193-.4072676.256445-.6238305.3637102-.1482232.0734631-.2927524.1563909-.4437461.223995-.2036338.0910402-.3698654.2294033-.5360971.3695692-.0230877.0193798-.0452519.0401118-.0632603.0635479-.0766513.1005048-.0484843.2248964.0674161.2771769.0683397.0306472.1417587.0509284.2137924.0743645.5476409.17532 1.108211.3001623 1.6692428.4272581.9299737.2109248 1.843786.4813413 2.7594453.7436453.1237502.0351542.2456534.0757167.3689419.1117722.1292913.0374076.1962457.1329548.2433446.2456283.0281671.0676041.0147762.131152-.0360168.185686-.1316001.1410673-.2862879.2154318-.4866893.1604471-.3352339-.0919416-.6695442-.1883901-1.006625-.2735713-.5864283-.1482784-1.1756271-.2870922-1.7620554-.4349199-.7258782-.1834325-1.4499094-.3722734-2.1748641-.5588608-.1098976-.0283937-.2202569-.0554353-.3296927-.0842798-.1089741-.0288444-.2151777-.0594916-.3172254-.1140256-.2119454-.1131242-.4395904-.1167298-.6575385-.0207319-.178699.0788715-.351857.1721652-.5190122.27267-.1736197.1050117-.3398513.2203894-.5250149.3082748-.2004015.0950964-.3075285.2609519-.3052198.4813413.0023088.1987561.0161614.397963.0235495.5967191.0013853.0283937.0064646.0612944-.005541.0842798-.0484843.0905895-.0374022.1874888-.0383257.2830359-.001847.2740221-.0009235.5475934-.0013852.8216155 0 .0590409-.0004618.1180819 0 .1775735.0013852.1852353-.0858864.3254012-.2345714.4326664-.0364786.0265909-.077113.0468722-.1163621.0694069-.5416381.3118803-1.0828145.6246621-1.6249143.9347397-.1376029.0784207-.2807468.1469263-.4188114.2235443-.1154387.0644492-.2318008.0671534-.3477012.0103659-.4802248-.2361637-.9729169-.4506941-1.4018869-.7751939-.1209797-.0914909-.252118-.1640527-.3961854-.2131784-.2650472-.0910402-.5240915-.0576888-.775286.0459708-.1112828.0459708-.2156393.1081666-.3199959.168109-.4178879.2397693-.8339287.4822427-1.2518166.7229134-.1759285.1009555-.3532423.1992068-.5499497.3105283"/><path d="m36.2063523 32.1039523c-.0009358 0-.0018557 0-.0027756 0 0-.2306135-.0032198-.4612271.0013799-.6918406.0018398-.1098592-.0257579-.2115471-.0915326-.2928066-.0699143-.0857991-.1494878-.1734141-.2442401-.2274358-.4369643-.249226-.8817481-.4857411-1.3219322-.7295196-.1803053-.099872-.3541711-.099872-.5363163-.0009079-.2640184.1439065-.5340164.2764639-.7989548.4176466-.1858249.0989641-.3702698.2006519-.5501152.3096032-.2092829.1275638-.3509513.3023398-.3523312.5606451-.00046.0739961-.0082794.1484461-.0068995.2228962.0068995.4312654.0147188.8625309.0239181 1.2937964.0045996.2079154.0919925.3717962.2764374.4807475.0906127.0531138.1789255.1112211.270458.162519.3527912.199744.7074223.3972182 1.0606735.5960543.0869329.0490281.1775455.0680945.2796572.0726342.159147.0068094.2952959-.0404028.429145-.1143989.3150743-.174776.6310686-.349098.9475228-.5216042.1402885-.0758119.2644784-.1697824.3734895-.2855432.1550074-.1652427.2437801-.3549995.2424161-.5824353-.0009358-.2233502 0-.4467003 0-.6700504m-7.2062483-2.5549075c.110851-.1829473.2180222-.3595392.3325529-.548842.0745139.0354091.1430483.062647.2065232.0980561.4719215.2660227.943383.5329534 1.4143846.8007919.1959441.1116751.392808.2224422.5850723.3404728.2851768.1756839.5717334.1684205.8578301.0136189.2184822-.1184845.4309848-.2469563.6457873-.3708883.2870166-.1652428.5721934-.3332094.8610498-.4948204.318754-.1784077.3693499-.1834013.6894838-.0054476.4802008.2664767.9535023.5447564 1.4309433.8162267.1766256.1003259.3523313.2029217.5344764.2923526.2056033.1007799.3008155.2560355.2994356.4816554-.0036797.4766618-.0004599.9537777-.0009199 1.4308935 0 .1484461-.0137989.2978001-.0018398.4453383.0206983.2587593.146728.4662207.3592307.6192064.0791135.0567455.1623667.1084974.2474598.1557096.2180222.1189385.4424839.2265278.6554465.3531837.1665065.0989641.3412922.112129.5234374.0926086.0574953-.0059015.1168304-.0317775.1674263-.0617391.097972-.0594692.2042234-.0926086.3141544-.1225702.7777966-.2129089 1.5606528-.4072054 2.3467287-.5883369.5579345-.1284717 1.1048299-.3032477 1.6572448-.4548715.4360445-.1193925.8702491-.2455944 1.3187125-.3159588.0662346-.0104411.1343091-.0213362.2014636-.0195204.1600669.0045396.282417.1012339.3164542.2396928.0326573.1339193-.036797.2791877-.1752457.3549996-.0524358.0281457-.110391.0476662-.1678863.0658247-.920385.2896288-1.8573286.5206963-2.7919724.7608431-.686264.1761379-1.3697683.362717-2.0541925.5461183-.1881247.0508439-.2309012.1992901-.0887728.3300316.1154506.1062275.2359608.212001.3707298.2909907.4930798.2896288.9921391.5683625 1.4893586.8502739.1274096.0721802.2626386.0948784.4112064.10078.2621787.0108951.5059588-.05039.7538786-.1198465.7547984-.2110931 1.5109768-.4190084 2.2694549-.6164826.2686181-.0699104.5459755-.1084973.8201132-.1575254.0427765-.0077174.0901526.000454.1338491.0086253.0818733.0158887.1407485.0658248.1499477.1475382.0105792.0953324.012879.1933885.0036797.2887209-.0036797.0367711-.0423165.0808055-.0768137.1021418-.0501359.0304156-.110851.0453964-.1683463.0635549-.6605061.2110931-1.3269918.4022118-2.0063564.5456643-.1030316.0217903-.2065232.0481202-.3044952.0857992-.2883965.1107671-.3339327.4385289-.0864729.6219302.0777336.0576534.1697261.0962403.2548192.1439065.1113109.062647.2263016.1198464.3320929.1906647.1609869.1084973.3307131.1661507.5289569.1638809.1605269-.0013619.3159942-.0177046.4687018-.0603772.2612587-.0730881.5206775-.1525318.7823962-.225166.1885846-.0522058.3771692-.1066814.5694336-.1425445.1241898-.0231522.2552791-.0222443.3826888-.0177046.1195902.0036317.1761656.0590153.2060632.1715982.0096592.0358632.0156387.0730882.0206983.1098592.0193184.1489001-.0206983.2274358-.1573072.2841813-.0970521.0399488-.1991638.0690025-.2994356.1012339-.1007318.0322314-.2051433.0544756-.3017354.0948784s-.1908844.0903388-.2768974.149808c-.1218901.0844372-.1361489.1638809-.0639348.287359.0758938.1307415.172026.2428706.3090948.3186825.3224337.1784077.6430276.3604471.9636214.5424866.1830651.1039576.36843.2051915.5459755.3182285.0869329.0553835.1678863.1271098.2359608.2042836.0708342.0803516.072674.1774998.0059795.2682925-.0174786.0240601-.0354171.0481202-.0542756.0712723-.0993519.1207544-.2630985.1774998-.4259253.0948784-.1476479-.074904-.293916-.1529857-.4378843-.2346992-.3849886-.2206263-.7704371-.4407987-1.151746-.6673265-.1260298-.074904-.2603388-.1193925-.4015473-.1452684-.1389087-.024968-.2111228.0295076-.2424002.1675126-.0413967.1856711-.0326574.3681645.0220782.5520198.035877.1207543.0597951.2460483.0749738.3708883.0211583.17523-.0740539.2964383-.2134226.3904087-.0469161.0313235-.097052.0322315-.1508677.0145269-.12189-.0394949-.2120427-.113037-.2621786-.2297056-.0206983-.0476662-.0349571-.0985101-.049216-.1484461-.1126908-.3863231-.2258415-.7726462-.3362325-1.1594232-.0220782-.0780818-.0386369-.1588873-.0482961-.2392389-.0381769-.3136889-.1747858-.5688164-.4521431-.736783-.2249217-.1357351-.4562828-.261937-.6830444-.3954023-.097052-.0571995-.2014635-.0603772-.3072549-.05039-.1067113.0099872-.2028435.0976022-.208363.2042836-.0064395.1325574-.0202384.2660227.0202383.3994881.1140707.3781517.2189422.7585732.3297931 1.1380868.0768138.2646609.1586871.5284137.2345809.7930746.0206983.0712723.037257.1457223.0400168.2188104.0027597.0576534-.0073594.1212083-.0312775.1734142-.0593352.1284717-.1582271.2287976-.306335.2337912-.1370688.0045397-.2433202-.0762659-.3104747-.1933885-.036797-.0635549-.0639348-.1348272-.0837132-.2056455-.1968639-.7031897-.3955677-1.4059255-.5855322-2.110931-.0869329-.3236761-.1527076-.6532537-.2359608-.9778377-.0312774-.1221163-.0777337-.2415087-.1301694-.3563615-.0630148-.138005-.1614468-.2487721-.2971357-.3273078-.2607988-.150262-.5174579-.3073334-.7782566-.4571414-.2676982-.1534397-.5404559-.2978002-.8058543-.4544176-.1481079-.087615-.3081749-.1207544-.4737614-.1339193-.1614468-.012711-.2350408.0848912-.1918043.2424166.2833369 1.0350371.5721933 2.0682584.8495507 3.1046574.1444282.5397628.270458 1.0845192.4024672 1.6274597.0266778.1084974.0473761.2183566.0142588.3309396-.0308175.1035037-.0947522.1684205-.2074431.174322-.060255.0031777-.1209701.0031777-.1812252-.0018159-.0887727-.0081713-.159607-.049482-.1931842-.1339192-.0469162-.1175766-.0970521-.2346992-.1301694-.3563615-.1034916-.3813295-.1931843-.7658367-.2994356-1.1462582-.147648-.5311375-.3132345-1.0577354-.4572027-1.5897808-.1632867-.6042256-.3109347-1.2125369-.4650221-1.8194863-.0607151-.2383309-.1195903-.4766619-.1812252-.7149928-.1039516-.4008499-.3422121-.6841232-.7331802-.8502739-.1784655-.0762659-.343592-.1861251-.5064188-.2923526-.1605269-.1048656-.331173-.1420906-.5169978-.1153068-.1218901.0177046-.2263015.0785357-.3302531.1402748-.3684299.2197184-.7368599.4385289-1.1080496.6537077-.1366089.0789896-.2796572.1475382-.4208657.2183565-.2028435.1021418-.4098266.1035037-.6080704-.0040857-.343592-.187033-.6825844-.3817834-1.0234166-.5738101-.3274933-.1852171-.6545266-.3708883-.98156-.5561054-.0128789-.0072635-.0271377-.013165-.0409366-.0195205-.1881247-.087615-.2883965-.2324294-.2925362-.4398908-.0018398-.0894308-.0078193-.1788616-.0073594-.2682925.0027598-.5066234.0073594-1.0137008.0101192-1.5203243.00046-.0817134.0022998-.1643348-.0064395-.2455943-.0220782-.2133629-.1209701-.3799676-.3150743-.487557-.2764374-.1529857-.5524149-.3073334-.8265526-.4639508-.4700817-.2692005-.9387834-.5402168-1.4074852-.8112331-.012419-.0072634-.0216183-.0195204-.0542756-.05039"/><path d="m25.9139712 38.1069145c-.0041566-.3274047.003233-.6548095-.027249-.98268-.0157029-.167661-.0651207-.2938725-.1870487-.3967977-.0517271-.0442439-.1076108-.0842963-.1658037-.1187599-.3533142-.2081792-.7070902-.4149611-1.06179-.6208116-.0521889-.0302721-.1071489-.0572842-.1630325-.0810362-.2549405-.1080482-.4978729-.088022-.7371104.0577499-.3371495.2049191-.6710661.4182212-1.0229947.594731-.3279126.164401-.4641579.4158925-.4632342.7693779.0013855.4890113-.0009237.9780227-.0027787 1.467034-.0009161.1988647.0822167.3544168.2332412.4745739.0535744.042381.1131529.0768447.1718076.1113083.3085149.1788384.6174917.3576769.9273921.5341867.1053015.0600785.2115266.1206228.3228322.1681268.1727314.074516.353776.0875563.5315877.0181632.0909842-.0358608.1768881-.0861591.2614063-.1364574.1694985-.1005966.335764-.2072477.5052624-.3087758.1888961-.1127054.3819488-.2188908.5689975-.3348563.2101412-.1299373.3163663-.3194874.3099005-.5733076-.0060041-.2137678-.0013856-.4275356-.0013856-.6417692m-2.2099456-6.0772469c.1519482-.0353951.4068886-.0395866.616106-.0088487.0069278.0465725.0212451.0973365.0212451.1481005.0018474.6114971.0023092 1.2234599.0018474 1.8354227 0 .2673262-.0036948.5346524-.0027711.8019786.0004618.1909473.0845183.3395136.2443179.4396445.1865868.1173627.3750211.2309997.5653027.342308.3667078.2156307.7348012.4280013 1.1024327.6417691.0591166.0344637.1177714.0698588.1755024.1061854.1399402.088022.2073701.2119049.2064464.3818945-.0023093.8485512-.0027711 1.697568.0004618 2.5465849.0004619.1704554-.0706628.294804-.2082937.3814289-.1477916.0936107-.2988161.1816328-.4503024.2682576-.3888766.2221509-.7796005.4415074-1.168477.6645897-.0720484.0409839-.140402.0903507-.2050608.1429777-.1417875.1145683-.225844.2570802-.2383139.4484932-.0147792.2277396-.0715865.4536163-.0734339.6808901-.0023093.3995922.0983737.7731037.3856436 1.0697706.1745787.1802356.3593182.350691.5394392.5258036.0378715.0367923.0775905.0731189.1150003.1108426 1.095043 1.1019056 2.1896243 2.2042769 3.2842055 3.3066482.0697391.0703245.1413257.1392518.2059845.2142336.0544981.0628729.1053015.130403.1477915.2016589.0217069.0367923.0383335.0917479.027711.1299374-.0849802.3073785-.351005.3981949-.5796201.2636004-.0387952-.0228206-.0715865-.0563528-.1039159-.0884878-.7297208-.7349142-1.4603653-1.468897-2.1877769-2.2061398-.363013-.3688543-.7214076-.7428316-1.0788784-1.1168088-.0928316-.0973366-.198133-.1639353-.3292981-.1895501-.173655-.033998-.3002016.0381894-.3533142.2063162-.0138554.0428467-.0207831.0898849-.0217068.1350603-.009237.359074-.0203214.7181481-.0226306 1.0772221-.0013856.2365884.0175502.4736425.0138554.7102308-.0046184.3194874.1270084.576102.3316073.8043073.0304821.0339979.0637352.0656672.0960646.098268.7227931.7307226 1.4465098 1.4609796 2.1688411 2.1926337.0960645.0973366.1865868.2007276.2743381.3055157.0946789.1131712.0965263.18629.0184739.3120358-.0240161.0386552-.0521889.0754475-.0835946.1080482-.1274702.1331974-.3099004.1429777-.4489168.0246835-.0401809-.0344637-.0762051-.074516-.1136148-.1127055-.4715475-.475971-.9435567-.9519421-1.4146423-1.4283789-.0480323-.0489011-.0905224-.1029252-.1399402-.1504292-.0489559-.0470382-.0983737-.0964051-.155643-.1318002-.2350809-.1448405-.5251218-.013506-.5417484.2640661-.0254017.42707-.0170884.8550713.1417875 1.2635122.0424901.1089797.1062252.2007276.1898198.2822295.3759448.3665256.7491185.7358456 1.1236777 1.1042342.0272491.0265463.0540363.0535584.0822091.0791732.186125.1718526.1653418.3255419.0198595.5495557-.0466467.0721873-.1246992.0884877-.2018279.0801047-.137169-.0144375-.2697196-.047504-.3685552-.1564837-.0665062-.0731188-.1353216-.1448405-.1972093-.2216851-.1140767-.140649-.2540168-.2398484-.4309048-.2803665-.0438756-.010246-.0891368-.0195605-.1334743-.0181633-.0969882.0032601-.1570285.0521612-.1722695.1504292-.0193976.1201571-.0360242.2421771-.036486.3637313-.003233.5812249-.0004619 1.1624499-.0004619 1.7432091 0 .0763789.0013856.1536893-.009237.2291367-.0281727.2025904-.192129.3432394-.3925713.3437051-.0563455 0-.1080726-.0176975-.1367072-.0670644-.0411045-.0721874-.0835946-.1462376-.1099199-.2249452-.0484942-.1453062-.0660444-.2966669-.0651207-.4512876.0027711-.5965939.0009237-1.1931877 0-1.7893159 0-.0689273.0013855-.138786-.0096988-.2058505-.0207832-.1234171-.1237755-.1779069-.2383139-.1308687-.0346387.0144375-.0655825.0386552-.0979119.0582156-.2304625.1378547-.4267481.3162274-.6054836.5160234-.1593377.177907-.3191374.2086449-.5255837.1080483-.0586548-.0284093-.0992974-.0698588-.1205425-.1299373-.0558837-.1550865-.0494178-.2920097.0789761-.4186869.4115072-.406578.8179339-.8187447 1.2248226-1.2304457.0637351-.0647358.125161-.1336631.1782735-.2072477.0951409-.1331974.1431731-.2780379.1371691-.4494247-.0106225-.3055157-.0004619-.6114971.0009237-.9174785 0-.0535584.0013855-.1075825-.0036948-.1606751-.0124699-.1266773-.1034541-.1918788-.2239966-.1481006-.1778117.0642701-.3523905.1341288-.4886358.2808322-.1865869.2002618-.3837962.3912091-.5782345.584485-.3297599.3264733-.6613672.6515494-.9925127.9770913-.0267872.0265463-.0540363.0544898-.0845183.0759132-.1584141.1108426-.3205229.0889535-.4419891-.06101-.0332531-.0409838-.0646588-.0852277-.0877513-.1322659-.0360241-.0731189-.036486-.1504292.0161647-.2165622.0665062-.0828991.134398-.1653324.2092175-.2412456.7708253-.7796238 1.5430362-1.5583162 2.3166327-2.3356114.1140766-.1145684.2138359-.2375198.2817276-.3851547.0447993-.0978022.0674299-.1988646.0789761-.3078442.0674299-.6329205.0143173-1.2672381.0327913-1.9006242.0027711-.0940765-.0129318-.18303-.0535745-.2668605-.0623495-.1290058-.1593377-.1769755-.2974305-.1471691-.15241.0326007-.2794184.106651-.3902621.2198222-.3777921.3870176-.7606646.7689122-1.1412279 1.1526697-.2572497.2598746-.5131138.5206806-.7722109.7786923-.4586157.4568764-.9181551.9118898-1.37908 1.3659718-.0475704.0470382-.1034541.0950079-.1644181.1173627-.2059845.0759132-.4207441-.0456411-.4784752-.2612718-.0170884-.0633386-.0041566-.1234171.0351005-.1732497.0660444-.0833648.1325506-.1671953.2059845-.24404 1.2977946-1.3622459 2.6343846-2.6849052 3.9566572-4.0224677.0586547-.0596128.1186951-.1182942.176888-.1783727.2396994-.2449714.3306836-.533721.2803421-.8774261-.0221687-.149032-.0050803-.3041185-.0009237-.4564106.0023092-.0833648.0180121-.1662639.0217069-.2500944.0106225-.2249452-.0840565-.4047151-.2646393-.5267351-.20737-.1401832-.423977-.2668605-.6415077-.3898119-.3505431-.1979331-.7057047-.387949-1.0580952-.5816906-.0401808-.0218891-.0789761-.0456411-.1168477-.0707902-.1570285-.1047882-.2341573-.2449715-.2327717-.4419732.006004-.6808901.0018474-1.3613144.0013855-2.0417388 0-.1453063.0064659-.2910782-.0013855-.4359187-.0106225-.1974675.0711247-.3395136.2355428-.4368502.1958238-.1164312.3921095-.2319311.5897807-.3451023.3029727-.1741812.6077928-.3451023.9098418-.5197492.0919078-.0530926.1810446-.1122397.2678722-.1732497.2087555-.1467034.302049-.3586083.3089767-.6073055.0050803-.174647.0193976-.3511568-.0323294-.5239408-.0143173-.0493669-.0018474-.106651-.0023093-.1597437-.0013855-.3977292-.0027711-.7954585-.0046184-1.1931877 0-.0149032-.0083133-.0316693-.0041567-.0451753.070201-.2235481.033715-.4550135.0498797-.6822873.0009237-.0139718.0106225-.0279435.0161647-.0414496"/><path d="m19.0466704 17.4354896c-.0077881-.0699932-.0082462-.144473-.0247386-.2153635-.1438505-.6205158-.3339712-1.219944-.7407839-1.7354702-.3582516-.4536092-.6990946-.9211272-1.0477257-1.3819152-.2776222-.3661178-.5602837-.7290949-.831034-1.0996995-.0810876-.1112711-.20249-.1269746-.3161044-.0776205-.0682602.0296124-.1145306.0821073-.1030775.1552411.018783.1224879.0242805.2575388.0829201.3620797.0984963.1754315.1626335.3625285.2400561.5451387.1676728.3934869.32939.7896659.5098902 1.17732.1869139.401563.3848228.7981907.5515793 1.2082785.0471866.1157578.1072006.2270289.1695053.3360567.0962057.1682526.2185243.3167637.366956.4437383.2034063.1740855.4072707.3477222.6115933.5209103.0508516.0435214.1003288.0906321.1575941.1247313.1452247.0870427.3133556.0197417.3495473-.1404349.0160343-.0713391.0160343-.145819.0238224-.2229908m1.9534336 3.1775077c-.0513097.0354452-.0865851.0628143-.1246093.0843507-.1736283.0996056-.3481729.1978651-.5337125.3028548-.0416891-.0749285-.078797-.1377429-.1126981-.2023519-.1575941-.3010601-.3225181-.5994282-.4700335-.9054237-.1516385-.3154177-.3916946-.5572528-.6541987-.778449-.5973915-.5043093-1.202113-.9996452-1.8027114-1.5008138-.2020319-.1687014-.3770347-.3616311-.4833191-.6030176-.1282742-.2902919-.2560903-.5810325-.3669559-.8776059-.1530129-.4087418-.3344294-.8031261-.5305057-1.1934723-.2519673-.5016173-.4929396-1.0090673-.7261239-1.5196581-.5808991-1.2692981-1.1544683-2.5412883-1.7312443-3.81238114-.1007869-.22209353-.2061551-.44149501-.3060257-.66403721-.0426054-.09422149-.0778808-.19113503-.1131563-.28849724-.0435216-.11934723-.0558909-.24048915-.0343591-.36836118.0329848-.19292972.0503934-.2122227.2409723-.2651662.1892045-.05204616.340843-.00673011.4622454.14133224.0279455.03454788.0554329.06954444.0797133.10633569.4402556.66852394.9075404 1.3177549 1.3908594 1.95711504.7687293 1.0171435 1.5269218 2.0428117 2.2892374 3.0653393.5364612.7192241 1.0720062 1.4388968 1.6075512 2.1585696.0572653.0776205.1108656.1579332.1708797.2333104.1287323.1597278.2052388.3432354.2483023.5393058.1094912.503412.2121106 1.0086187.3188531 1.512928.0366498.1727395.0765065.3450302.1154469.5173209.0206155.0933242.0513097.185751.0618465.2799725.0366498.3360566.1635496.6416035.3284737.9323441.1640078.2898432.3380943.5738538.5075995.8601076.0526841.0888374.1039938.1781235.1676728.2880486"/><path d="m12.5095408 25.8127701c-.2353682.0198445-.5464714.0422333-.8566676.0737811-.3841172.0386715-.7682344.0829401-1.1518981.1287353-.3909197.0468128-.78183949.0976964-1.17230574.1470534-.11065478.0142474-.22130956.0259506-.33151084.043251-.0988637.0157739-.1424.0692016-.15192357.1811453-.00362803.0412157-.00181401.083449-.00090701.1251735.00181401.0829402.03809427.1434916.10521274.1765658.19727389.0987141.39862931.1857249.61721786.2030253.1700637.0132297.3410344.0173004.51155156.0279859.2222166.0142474.4439797.0269683.6657427.0483394.2362752.0228976.4720969.0539365.7079185.0839578.3836637.0483394.7664204.1012582 1.1500841.1460357.1550981.0178093.3120102.0300213.4652943-.0193357.3428484-.1099084.6861504-.216255 1.0267313-.3337959.1337834-.046304.22267-.2294847.218135-.4014711-.003628-.148071-.0707465-.2396614-.2267516-.2991951-.1333299-.0513923-.2693809-.0951522-.4031643-.1455269-.3560001-.1338236-.7237911-.1801276-1.1727593-.1857248m5.4905632.3602553v.6599594c-.0435363.0076325-.0920611.0234064-.1410395.0239152-.349651.0025442-.7002089-.0076325-1.0494064.0055972-.3782217.0147562-.7546293.0468128-1.1142573.2076048-.2553223.1144879-.5183542.2070959-.7800255.3032658-.1977274.0727634-.3990829.1333148-.5972638.2040429-.1913783.0676751-.3845707.1307707-.5709605.2126932-.4539567.1989546-.9197045.2498381-1.4008714.1811453-.5378548-.0768341-1.0766166-.1495975-1.6158319-.2132019-.3836637-.0447776-.77004839-.0620779-1.15371209-.1093996-.67163824-.0824313-1.3469045-.1292442-2.01219369-.2757887-.2689274-.0595338-.54511085-.0788695-.81811977-.1139791-.38366371-.0498659-.76732741-.1017671-1.15144462-.1434916-.26620638-.0290036-.53422677-.0356184-.80043315-.0656397-.45032867-.0503747-.90473888-.0630956-1.35098602-.1567213-.08752612-.0183181-.17595924-.0407068-.25758982-.0778518-.15963313-.0722546-.21632103-.2208345-.1705172-.4070682.05850191-.2355907.19545988-.3750116.4108739-.3968915.28842803-.0295124.57776307-.061569.86709811-.0595337.33695288.0020353.6661962-.0325655.99407901-.1190675.3115567-.0824313.63172995-.1053289.9500892-.1353501.3405809-.0325655.6807083-.0666575 1.01630067-.1460358.10838726-.0259506.22040255-.0452863.33060383-.0442686.41722294.0040707.83036435-.0437599 1.24441277-.0936257.25078727-.0300213.50338855-.0427422.75553633-.0651309.25895033-.0223888.51790064-.0437599.77685094-.0702193.2512408-.0254418.5024816-.0544454.7532689-.0854843.3247082-.040198.6485095-.0890462.9736713-.1251735.2662064-.0290036.5333198-.0488482.8004332-.0651309.2344611-.0137385.4593987.0442687.6720917.1521417.2249376.1139791.4593987.1923398.6979414.2605237.1800408.0513924.357814.1129614.5342268.17911.4376306.1643538.8816102.3032658 1.3319389.4162272.2621248.0656398.5296917.080396.7963516.0910816.2453452.0101767.4915975.0055971.7369427-.0045796.1646217-.0066148.1641682-.0157739.3419414.0763253"/><path d="m32.0900996 39.9101725c.0227537-.1237742-.0409566-.2484388-.0987509-.3757748-.4000095-.8788855-.8464364-1.7381809-1.1877415-2.6424445-.1205944-.3205662-.3176412-.5926022-.5652011-.8312459-.2070584-.1999086-.4127515-.4011529-.620265-.6006163-.0477827-.0454135-.1014814-.0854843-.1519945-.1282264-.0778176-.0658942-.1601858-.0645585-.2493802-.0218163-.0891944.0422969-.1397075.1055196-.136522.2052513.0072812.2319653-.0131972.4652662.0860088.6883268.0345856.0779154.0354958.1700781.0505132.2560077.0100116.0574348.0163826.1153148.0268493.1727495.0427769.2284034.1620061.4220788.2971629.6068495.3690645.503556.7408595 1.0057763 1.1135646 1.5075514.2366381.3187852.4787371.6335634.713555.9536843.1183191.1611735.260302.2996403.4027399.4389975.0596146.05788.12378.1144243.2157048.0796963.1028466-.0396255.1042118-.131343.1037567-.2212797 0-.0218163 0-.0436326 0-.0877104m-5.0899956-7.5943011c.1979569-.1121982.3713399-.2101489.558375-.3156686.0354958.0480849.0732668.0912723.1014814.1393572.1410727.2408698.2812353.4826302.4191226.7248357.3576876.6282206.8423408 1.1486953 1.4039013 1.6063926.229357.1869969.4491574.3851246.6694129.5819166.2639426.2364175.5228793.4790683.7868219.715931.124235.1113077.2093337.2462127.2721339.3967007.3736152.8926876.7854566 1.7684565 1.1877415 2.6482325.5033111 1.09972.9957005 2.2047828 1.4958261 3.3058384.3335688.7337403.6730535 1.4652545 1.0098078 2.1981043.024574.0534277.0477827.1068554.0691712.1616188.0427769.108191.0300348.2154916-.0154725.3196756-.0796379.1843256-.2266266.243096-.4163921.1723044-.1383424-.0516468-.2370933-.1460357-.322192-.2613505-.309905-.4207431-.6220853-.8401505-.9333555-1.2604483-.6088881-.821896-1.2177763-1.6442372-1.8271195-2.4661332-.7718045-1.0409495-1.544064-2.0810086-2.3145032-3.1224033-.1010263-.1362406-.1929511-.2782692-.2894267-.4171812-.1501742-.2150465-.235728-.4576973-.2957977-.706136-.1565452-.654044-.3030788-1.3103142-.4496124-1.9665843-.0300349-.1349049-.0414117-.2742621-.0664408-.4105028-.0491479-.2631313-.1724728-.4973227-.3026237-.7279523-.216615-.3833436-.4377806-.7644612-.6562158-1.1473596-.0286697-.0494206-.0514233-.1024031-.0846437-.1691877"/><path d="m28.9731846 17.4950617c0 .0664652-.0059916.1333794.0013827.1989465.0115223.1014941.0838824.1553848.1898877.146403.1092315-.0094308.2009491-.0574834.2820661-.1284395.2253765-.1962519.4576663-.3853185.6765902-.5878577.2152367-.1989465.4005155-.4252875.4908504-.7064173.1336588-.4172039.338756-.8034206.5277219-1.1968227.2852924-.5932468.5668977-1.1887391.8563382-1.7806386.0783517-.160774.0649858-.3139134.0087569-.4710946-.0313407-.0871233-.1401113-.126194-.2258373-.0821833-.0391758.020209-.0760472.0498489-.1046226.0830815-.1405722.1639176-.2843706.3251406-.4148032.4966926-.270083.3547805-.535557.7136028-.7982657 1.0737723-.3415213.4684-.6775119.9408418-1.0181114 1.41014-.3359906.4634601-.432778.9956308-.4719539 1.5444178m-1.4209314 3.5051411c-.1954184-.1131705-.3700967-.2142156-.5521492-.3193024.0207402-.0507471.0318016-.0929615.0530026-.1293377.1705302-.2955007.3442867-.589205.5138951-.8851548.1857397-.3233442.338756-.6592629.4120379-1.0252706.0230446-.115416.0322624-.2339755.0589942-.3484932.072821-.3085243.1525554-.6157013.2276809-.9237765.0958656-.3943003.1981837-.7872533.2811444-1.1842482.0460892-.2222991.1295108-.4216947.265474-.6031268.3830017-.5124107.7650815-1.0252706 1.1480831-1.5376814 1.2149125-1.6270501 2.4316686-3.253202 3.6438158-4.88249761.2262982-.30403338.4350824-.62064126.6466321-.93500369.0751254-.11182321.1732955-.18188112.3037281-.21376645.0755864-.01886175.1493292-.01616722.2235328.00853269.1912704.06287249.2580998.16661209.2037145.35388228-.0511591.17694114-.1119969.35208592-.1811307.5231889-.3101806.7688407-.6567718 1.52151418-1.0194941 2.26745128-.2203066.4526819-.4240211.9129984-.6346489 1.3701712-.2419686.524087-.4862416 1.047725-.724523 1.5731594-.2534908.5595651-.4996074 1.1222739-.7526374 1.681839-.1041616.2290355-.2198457.4526819-.3272336.6808192-.0626814.1333795-.1272063.2676572-.1765218.4064257-.0866478.2438554-.2392032.4414547-.4295518.6148031-.209706.1908629-.4221775.3790313-.6346489.5680978-.2788399.2483464-.5645932.4895073-.8360589.7454881-.2875969.2716989-.6074562.5119617-.8554164.8213841-.1064661.1329304-.2009491.2761899-.2885187.4216948-.1645386.2734953-.3203202.5514815-.4811717.8272222-.0216619.0372745-.0502373.0709561-.0880304.1234996"/><path d="m19.9775155 35.6682237c-.0146102-.0874401-.0191758-.1614964-.0397213-.2310916-.0452001-.1534662-.1963235-.207447-.3383156-.1244682-.0324162.0187371-.062093.0410433-.0913132.0642417-.116881.0914551-.2319357.1846948-.3492732.2757038-.4191279.3247773-.7359849.72718-.9510276 1.2049774-.3355762.7432405-.668413 1.4878193-1.0026195 2.2315058-.0780728.1739879-.1566022.3484219-.2369579.5215175-.0520485.1110845-.0648324.2252919-.0328727.3426222.034699.1266989.1250991.1753262.2570468.1427593.0981617-.0245368.1712123-.0758409.2333053-.1583736.5026795-.6651689 1.0131206-1.3249844 1.5135172-1.9919379.1990629-.2649969.3871682-.5393623.5665987-.8177429.2059114-.3185316.3469904-.6633845.4008652-1.039912.0205455-.1445438.048396-.2881953.0707678-.4198015m1.4587292-3.6680209c.1986063.1066233.3748409.2020936.5638593.3038095-.0196323.0450584-.0328728.0843172-.0534182.1195609-.2333054.4006182-.4656976.8021287-.7031121 1.2005162-.0648324.108854-.116881.2190463-.1456446.3421762-.1744083.7338718-.3497298 1.4677437-.5273341 2.2007233-.0707677.2917642-.1470143.5821901-.2250871.8721699-.0598102.2221691-.1657336.4211398-.3100085.6040501-.3611439.4577219-.723201.9154438-1.0733873 1.3811959-.9135891 1.2152383-1.8216994 2.4344917-2.7302662 3.6528528-.5031361.6745375-1.0026195 1.3517518-1.5048424 2.0267355-.0479395.0651339-.0995315.1284833-.1556891.1869254-.0634627.0651339-.141079.1052849-.2374145.1088539-.2387841.0093686-.3332934-.1356213-.3337735-.29801-.0008896-.1423131.0246782-.2752577.0844883-.4046333.4346511-.9404266.8697588-1.8808533 1.2998442-2.8230645.1648204-.3609132.3122913-.7289645.4771117-1.0898777.2415236-.5277632.4935482-1.0510651.7364414-1.5783822.2922024-.6339404.5802957-1.2692191.8674759-1.9053901.1177941-.2609818.22737-.5255325.341055-.7878527.062093-.1432054.1492972-.2712426.2643519-.3787582.1785174-.1668499.3579479-.3328075.5405744-.4951962.2383276-.2114621.482134-.4171247.7204616-.6285869.2547639-.2261842.5054188-.4568296.7588131-.6847983.3068125-.27615.5392048-.607173.7496818-.9551488.1639073-.2707964.3255317-.5429313.489439-.8137278.0301334-.0495196.0648324-.0959164.10638-.1561429"/><path d="m34.2787678 25.8194215c-.0004538.004575-.0004538.0096583-.0009076.0142334-.0966606 0-.1937749.0040666-.2904355-.0010167-.1356878-.0071167-.2681989.0188084-.3957182.0635419-.170177.0599836-.3385388.1275921-.5028163.2048591-.0880383.0416835-.1706308.1026837-.247324.1677506-.0839539.071167-.1075518.1972341-.0467419.2912761.1143589.177409.2455087.3477013.4551668.3695597.1229812.0127084.2291717.0564253.3385387.1113255.1769841.0884503.3603215.1555506.5590882.1469089.2818131-.0116918.5636263.007625.8454394-.0335502.2427858-.0355834.4882945-.0467668.731988-.0721836.2586691-.0269417.5168843-.0579502.7755533-.086417.3621367-.0396501.7247272-.0742169 1.0859562-.1209838.1170818-.0147417.2337098-.0503251.3448921-.094042.1198046-.0472752.2241798-.1291171.3140333-.2323092.0848616-.0976004.067617-.3019511-.0889459-.3288929-.1615547-.0274501-.3212941-.0701502-.4828488-.094042-.2727371-.0396502-.5468355-.0645586-.8191187-.1042087-.4492673-.0660836-.899896-.1103088-1.3527937-.1275922-.2078429-.0081333-.4161395-.0132167-.6239824-.0254167-.1996743-.0122001-.3993487-.0320252-.599023-.0488002m-5.2786638 1.0065038v-.6938776c.0639866-.0071167.121166-.0188085.1787993-.0188085.3798351.0005084.7596702.0005084 1.1395052.0066084.3385388.0055917.6639173-.0594752.9865729-.1753757.5736099-.2068924 1.1522117-.3965014 1.7280907-.5967855.170177-.0589669.3389926-.1250505.5046315-.1977424.2677452-.1169171.5418436-.169784.8291024-.1428422.3925416.0366001.7855371.0630335 1.1780787.1006503.3771122.0360918.7533169.090992 1.1308829.1209838.5790556.0462585 1.1522118.1448756 1.7276369.2226509.4424603.0599835.8840129.1321671 1.3264731.1967257.139772.0203334.2799979.0376168.4206775.0503252.3852808.0350751.7705615.0655752 1.1553884.1011587.3108567.0289751.6217134.0604919.9321162.0945504.3843731.0421918.7687463.0823503 1.151758.1367421.1388644.0198251.2745522.072692.4093324.1199672.1275193.0447335.1946825.1550422.200582.3004261.0072608.1621589-.0925763.3161845-.2300794.3599013-.0925762.0294835-.188783.0488002-.2840821.0625253-.5159767.0747253-1.0324072.1484339-1.5488376.2190925-.3240171.0447335-.6484879.086417-.9734125.1245421-.132965.0157584-.2672913.0228751-.4007101.0284668-.4987321.019825-.9906571.1098004-1.4853049.1718173-.4283923.0538835-.8558769.1179338-1.2838153.177409-.2945197.0416835-.5890394.0854003-.8844666.1235254-.1252503.0162668-.251862.0213501-.3780199.0325335-.3480687.0294834-.6965912.0543919-1.0437523.0915003-.2368864.0254168-.4751342.0508336-.7070287.1072588-.3453459.0843836-.6816156.0599835-1.0138012-.0528669-.4410988-.1499589-.8821976-.3029678-1.3178507-.4712268-.5141614-.198759-1.0342224-.3726097-1.564267-.5083352-.2023972-.0518502-.41024-.077267-.6189905-.077267-.3503377.0005084-.7002216.0005084-1.0505594-.0010166-.0653479-.0005084-.1306959-.0076251-.2146499-.0132167"/><path d="m23.3862294 26.3017402c.0134825.0108315.0265906.0209643.0393241.0314465.0037452-.0045423.0112355-.0108316.0101119-.0132774-.0071158-.012928-.0161041-.0251573-.024718-.0377359-.0071158.0055905-.0142316.0115304-.024718.0195668m1.2594953 1.4465408c-.0265906-.0307477-.0531812-.061146-.1067369-.1226415.0179767.0856045.0415712.1191475.1067369.1226415m-.9621301-1.1016771c.0082393-.0041929.0168532-.0083857.0250925-.0122292-.0239689-.0310972-.0479379-.0614955-.0715324-.0925926-.0209729-.0276031-.0400732-.0566038-.0625441-.0831586-.0232199-.0272537-.0434438-.0597485-.1198449-.0887492.047938.0663872.0715324.1034242.0999956.1369672.0411967.048218.085764.0932914.1288333.1397624m.4209553.4849755c-.0101119.0440252.0209729.065339.0587989.1009784.0011236-.0587002-.0157296-.0877009-.062544-.0978337-.01161-.0695318-.0707835-.1317261-.0370771-.208246.0681618-.0573026.0681618-.0573026.085015-.1222921-.0374515.037037-.086513.0656883-.0812698.1254368-.0520577.0118798-.0988721.0073375-.1348256-.0349406-.002247-.0024459-.0112354.0003494-.0172277.0003494.0078649-.0440252-.0273396-.0621943-.0595479-.1027254-.0041197.0642907.0127335.0936408.0632931.0995807.01161.0475192.0209729.0953879.0352044.1422083.0037452.0125786.0205984.0234102.0337064.0314465.0382006.0230608.0775247.0440252.1164743.0660377m.3003614.3406709c-.0415712-.0653389-.0415712-.0653389-.1093585-.092942.0258415.0331936.0456908.0607966.0677873.0866527.0067412.0076869.0198493.0108316.0299612.0160727.0138571.0520615.037826.0960866.1262117.1135569-.0475635-.0513627-.0812699-.0873515-.1146017-.1233403m-.1689065-.8095737c.0520577-.0059399.0307103-.0426276.0325829-.0695318.0651656.001747.0801462-.0118798.0895091-.0810622.0778992-.0160727.0947524-.0761705.1123547-.1355696.0505595-.0433263.0505595-.0433263.050185-.0901467-.0310848.0244584-.0621695.0485674-.0464399.0932914-.0677873.0234102-.0984975.0733753-.1123546.1355695-.0310848.0262055-.0625441.0524109-.0936289.0786164-.0112354.0237596-.0224709.0475192-.0329573.0730258v.0380853h.0003745c.0003745-.0143256.0003745-.0283019.0003745-.0422781m-.4647736.6484975c-.0546792.0234102-.0318338.055905-.01161.0880503-.0205983-.0013976-.050185-.0118798-.0606715-.0027952-.036328.0314465-.0786482.0628931-.074903.1177498-.0513087.0174703-.0778992.0506639-.0741541.1027254-.0535557.0426275-.0535557.0426275-.0528067.0901467.0288377-.0255066.0647912-.0475192.048687-.0932914.059548-.0125786.071158-.0552061.0745286-.1030747.0224709-.0143257.0468144-.0265549.0662892-.0433264.0250926-.0216632.0468145-.0468204.0681618-.0716282.0041197-.0296995.0078649-.0590496.01161-.0887491.023969-.0090846.0299612-.0255067.0258416-.0485675-.0026216-.014675-.0003745-.0300489-.0003745-.0450734.0823933.0192174.085764-.0422781.1033662-.0894479-.0348299.0300489-.0696599.0600978-.1041153.0901468-.0067413.0324947-.0134825.0646401-.0198493.0971348m.6819925-.3057302c.0393242.0541579.0722815.1016771.107486.1477987.1314549.1733054.2621607.3466108.3954882.5185185.0434438.055905.0651657.1100629.0149806.1851852-.1711535.0457722-.3535425.0939902-.5385531.1432565-.1543003-.139413-.2595392-.3099232-.413465-.4577219-.0752776.0684836-.1194704.1491964-.1752732.2215234-.0573009.0740741-.1123546.1495458-.1722771.2292104-.0374515-.0017471-.074154.0010482-.1086095-.0062894-.1374471-.0293501-.2733962-.0660377-.4115924-.0922431-.0745285-.0143257-.122841-.0475193-.1513042-.1240392.0700344-.1313766.1760222-.2501747.2670295-.3773585.0883856-.1240391.1808909-.245283.2771414-.3749126-.0329574-.0426275-.0625441-.0845563-.0962505-.1233403-.1280842-.1467506-.2584156-.2914046-.3853763-.4392034-.0793973-.0922432-.0644167-.1670161.0438183-.2236198.1498061-.0779176.3014849-.1519916.4610284-.2320056.1370727.150594.267404.2941998.4041021.4447938.1528023-.1254367.229578-.3004891.3733919-.4308176.2048599.0663872.3966118.1547869.584993.2281621.0520577.0939903.0220965.1628232-.037077.2302586-.1123546.1289308-.2213386.2606569-.3306971.3920335-.037077.044724-.0707834.0915444-.108984.1408107"/><path d="m24.1730834 23.2119098c-.0044813-.0087628-.0089626-.0175255-.0138174-.0262882-.0041078.0031546-.0119501.0066597-.0119501.0098143.0003735.0091132.0041079.0182264.006722.0273396.0063485-.0035051.012697-.0073607.0190455-.0108657m.2658902.3066947c-.009336-.0567824-.0369707-.0977918-.1068042-.1118122.0224065.0522258.0459333.0963898.1000823.1174203.0843977.1447599.1392936.2053978.2180898.2309849-.0660992-.0900806-.1262232-.1728005-.2113679-.236593m-.9209064-1.1044515c.0082157.0595864.0324894.106905.1153934.1293375-.0339832-.0602874-.0496677-.1149667-.1191278-.1261829-.0500412-.104802-.0500412-.104802-.1333186-.1352962.0466802.0560813.0638585.1174203.137053.1321416m.2334009.3249211c.0190455.0098143.0384644.0189275.056763.0294427.0141908.0080617.0268878.017876.0403317.0269892.0022407.0483701.0265144.0830704.0731945.1037504.0108298.0311952.0280081.0623905.0309957.0942867.002614.0297932-.010083.0606379-.0201659.1114616.0799165-.0739572.1109121.0122678.165808.0210305-.0459333-.1254819-.0455599-.1254819.0295019-.2492113.0082157-.0136698.0082157-.0318963.0119501-.0480197.022033-.0168243.0440661-.0339993.0660991-.0508236-.0242737-.0066597-.041452-.0014021-.0492942.0091132-.0085892.0122678-.0089626.0297932-.0130705.0452155-.0440661.0336488-.0877587.0676481-.1318248.1012969-.0313691-.0105152-.0627382-.0210305-.0937338-.0315457.0108298-.0564319-.0227799-.0851735-.0728211-.1037505.003361-.0318962-.0108298-.0497721-.0455598-.0529267-.0164314-.0017526-.0328628-.0049071-.0492943-.0073607.0011204-.0189274.0037344-.0378549.0014938-.0564318-.0007469-.0052576-.0168049-.0084122-.0257675-.0126183.0022407.0045566.0048548.0087627.0063485.0129688.006722.019278.0126971.0382054.0190456.0571328m.7599532-.425517c-.051535.0147214-.0601241.060638-.0810368.0977918-.0351035.0297932-.0799165.0546793-.0649788.1104101-.0578834.0045566-.0597506.0578339-.086265.0900807-.0048547.0101647-.0100829.0199789-.0138173.0301437-.0007469.001402.0063485.0056081.0097095.0084122-.0003735-.0147214-.0007469-.0290922-.0011204-.0438136.0631116.0003505.0765555-.042762.0873853-.0879775.0679664-.0375044.0746883-.0490712.0653523-.1107606.0627381-.0087627.076182-.0248861.0814102-.0981424.0130704-.0045566.0283815-.0070101.0388379-.0147213.0056016-.0045566.0029875-.0182264.0041078-.0276901-.0123235.0052576-.0272612.0080616-.0358503.0164738-.0059751.0059587-.0026141.0196285-.0037344.0297932m-.7155137 1.0241851c-.0631116-.0035051-.0765555.0080617-.0941072.0816684-.0216596.0154224-.0455599.0290922-.0649788.0466176-.0242737.0224326-.0451865.0480197-.0660992.0739573-.0048547.0290921-.009336.0581843-.0141907.0872765-.0918666.0546793-.0914932.0550298-.0881322.1486155.0354769-.0637925.0597506-.107606.0836509-.1514196.0448129-.0311952.0463067-.0403084.0134439-.0879775.0160579.002804.0392113.0136698.047427.0073607.0440661-.0325973.0907463-.0655451.0851446-.1279356.0138174-.0066596.0298754-.0112162.0403317-.0210304.0197924-.018577.0362238-.0403085.0522818-.062741 0-.0378549-.0003734-.0760603-.0003734-.1139152.0459332.0087627.0814102.0038556.0787961-.0588854-.028755.021381-.0537756.0403085-.0787961.0595864.0018672.0396074.0037344.0792149.0056016.1188223m-.7958036.4251665c.1856004-.2530669.3655991-.4991237.5489588-.7486856-.0324894-.04136-.0593771-.0788643-.0899993-.1142657-.1161403-.1338941-.2334009-.2667367-.3499146-.4002804-.0235268-.0266386-.0485474-.0522257-.0683398-.0809674-.041452-.0609884-.0227799-.1405538.0474271-.1777077.1542313-.0816684.3110766-.1591307.4724033-.2407991.1613267.1307395.2666372.3028391.4219888.4398878.1374264-.129688.2240648-.2912723.3585037-.4314756.20726.0630915.4007026.1584297.5904108.2285313.0451864.0935857.0246471.1584298-.0309956.2225728-.1161403.1338941-.2277993.2709428-.3405786.4072905-.0336097.040659-.0646053.08272-.1008291.1289871.0227799.0371539.0410785.0729057.0649788.1051524.1411608.1878725.2826951.3757449.4260966.5625658.0410785.0536277.0750617.1065545.0246471.1892744-.0776758.0227831-.1695424.0508237-.2621558.0757098-.0933604.0252366-.1878411.0473186-.2849358.0715037-.1467625-.1440589-.2543136-.3126534-.4115324-.4612689-.1187544.1584298-.2307868.3073958-.3458067.4605679-.0388379-.0049072-.0746883-.0066597-.1090449-.0140204-.1374264-.0294427-.2744794-.0592359-.411159-.0911321-.0776758-.0182264-.0773023-.019979-.1501234-.1314406"/><path d="m24.531176 30.6261476c.0126906.0618738.0126906.0618738.0914463.1290209-.0175427-.0667956-.0503887-.1001934-.0914463-.1290209zm-.6561737-.7720162c-.013437-.0653893-.013437-.0653893-.0768895-.0812093.0347123.0333977.0574805.0558973.080622.0780453.008958.0207418.0141835.044296.0279938.0618738.0339657.0435929.0515085.0907014.0481492.1444894-.0440435.0351555-.0440435.0351555-.0485225.1086307.022395-.0566005.0335925-.0840218.0444168-.1117947.037325.0130075.0742768.0260151.1116018.0386711.0033592.0594129.0526282.0868342.0951788.1195289-.01493-.0513271-.0335925-.0994902-.0895801-.1244507-.0153032-.0597645-.025381-.1181227.0250078-.1698014.007465-.0073826.0078382-.0203902.0108242-.0312884.0384448-.0168747.0541213-.0453507.0641991-.0963263-.0496423.0326947-.0817418.0544912-.0593468.1001934-.0563608-.0263667-.0634525.060116-.1186935.0439445-.0466563-.0119529-.0503888-.0857796-.1149611-.0805063zm-.4385689-.5231148c-.0063452-.0182809-.0123172-.0365618-.0197822-.0544911-.0011198-.0028124-.0138103-.0042187-.0149301-.0028124-.004479.0070311-.0111975.0207417-.008958.0228511.0145568.0116013.0313531.0207418.0477761.0309369-.0007465.0713658.0653187.1051151.1007775.1557391.0574805.0808578.0608398.0787485.1470605.1240992-.086594-.1023027-.1310107-.2193708-.2519438-.2763228zm.9189418 1.1095096c-.023888-.0583582-.023888-.0583582-.1242923-.1117947.0630793.0534365.0959253.0808578.1283981.1082792.0362052.0899982.037325.0892951.111975.1177711-.032846-.050624-.0421772-.1100369-.1160808-.1142556zm-.6095174-.1093338c-.0033593.0042187-.008958.0087889-.008958.0133591-.0003733.0101951.0018662.0207418.002986.0309369-.0597201.009492-.0795023.0471085-.0783826.0991387-.0858475.060116-.1172005.101248-.185132.2415187-.013437.0084374-.0287403.0151169-.0399378.0260151-.004479.0042187 0 .0172263.0003733.0263667.0100777-.003164.026874-.0038671.0291135-.009492.0055987-.0140622.0048522-.0305853.0063452-.0460538.0940591-.0625769.1145878-.0892951.1855053-.2415187.0556143-.012656.0720373-.0523818.0772628-.0998418zm.6509482-.8613113c-.0664385.0298822-.073157.041132-.0664385.1100369-.0123173.0038671-.0250078.0077342-.0369518.0119529-.0003732.0003516.002986.0087889.004479.0133591.0093313-.0098435.0186625-.0196871.028367-.0295307.034339-.0295306.0742768-.0566004.0668118-.1089822.0544945-.0179293.0847278-.0499209.070171-.107576.0608398-.0014062.0690513-.0414836.070171-.0864827-.031353.0235542-.0683047.0435929-.065692.0899982-.0380715.0270698-.0720373.056952-.0709175.1072245zm-.3825814 1.0662682c-.120933.1634734-.2317883.3135877-.3430169.4640535-.0391912-.0028125-.0697977-.0010547-.098538-.0073827-.1429548-.0312884-.2847898-.0674987-.4281179-.0959747-.07465-.0147653-.11944-.0516787-.1444478-.1332396.1772938-.2432765.3598131-.4939356.5483044-.7530321-.076143-.0878889-.1485535-.1719107-.2217105-.2559325-.0888336-.1026543-.1799066-.2035507-.2665006-.3079628-.0727838-.0875373-.05972-.1634733.0380715-.2148005.1493-.0783969.3012128-.151872.4602174-.2316751.1601243.1311302.2650076.3033925.4247587.4433116.1291445-.1406222.2246965-.2953067.3534678-.4373352.2071539.0667956.3967649.1571454.5871225.230269.052255.0903498.0287402.1596062-.031353.2288627-.1119751.1293725-.2198444.2619089-.3288334.3937423-.037325.0453507-.0724105.091756-.1130948.1434347.035832.0513271.0679315.0994902.1026438.1458956.1235458.164528.2482113.3287045.3713839.4932325.0246345.0326947.0500155.0660925.067185.1026543.0231415.0502724-.0037325.113904-.0578538.1272631-.170202.0421867-.3355518.1040605-.5188176.12656-.1407153-.1441378-.2538101-.3086658-.4008707-.4619441z"/></g></svg>